<svg width="22" height="25" viewBox="0 0 22 25" xmlns="http://www.w3.org/2000/svg">
<path d="M20.8984 23.127H19.9609V1.75195C19.9609 1.13063 19.4573 0.626953 18.8359 0.626953H3.08594C2.46461 0.626953 1.96094 1.13063 1.96094 1.75195V23.127H1.02344C0.712797 23.127 0.460938 23.3788 0.460938 23.6895V24.627H21.4609V23.6895C21.4609 23.3788 21.2091 23.127 20.8984 23.127ZM6.46094 4.18945C6.46094 3.87881 6.7128 3.62695 7.02344 3.62695H8.89844C9.20908 3.62695 9.46094 3.87881 9.46094 4.18945V6.06445C9.46094 6.37509 9.20908 6.62695 8.89844 6.62695H7.02344C6.7128 6.62695 6.46094 6.37509 6.46094 6.06445V4.18945ZM6.46094 8.68945C6.46094 8.37881 6.7128 8.12695 7.02344 8.12695H8.89844C9.20908 8.12695 9.46094 8.37881 9.46094 8.68945V10.5645C9.46094 10.8751 9.20908 11.127 8.89844 11.127H7.02344C6.7128 11.127 6.46094 10.8751 6.46094 10.5645V8.68945ZM8.89844 15.627H7.02344C6.7128 15.627 6.46094 15.3751 6.46094 15.0645V13.1895C6.46094 12.8788 6.7128 12.627 7.02344 12.627H8.89844C9.20908 12.627 9.46094 12.8788 9.46094 13.1895V15.0645C9.46094 15.3751 9.20908 15.627 8.89844 15.627ZM12.4609 23.127H9.46094V19.1895C9.46094 18.8788 9.7128 18.627 10.0234 18.627H11.8984C12.2091 18.627 12.4609 18.8788 12.4609 19.1895V23.127ZM15.4609 15.0645C15.4609 15.3751 15.2091 15.627 14.8984 15.627H13.0234C12.7128 15.627 12.4609 15.3751 12.4609 15.0645V13.1895C12.4609 12.8788 12.7128 12.627 13.0234 12.627H14.8984C15.2091 12.627 15.4609 12.8788 15.4609 13.1895V15.0645ZM15.4609 10.5645C15.4609 10.8751 15.2091 11.127 14.8984 11.127H13.0234C12.7128 11.127 12.4609 10.8751 12.4609 10.5645V8.68945C12.4609 8.37881 12.7128 8.12695 13.0234 8.12695H14.8984C15.2091 8.12695 15.4609 8.37881 15.4609 8.68945V10.5645ZM15.4609 6.06445C15.4609 6.37509 15.2091 6.62695 14.8984 6.62695H13.0234C12.7128 6.62695 12.4609 6.37509 12.4609 6.06445V4.18945C12.4609 3.87881 12.7128 3.62695 13.0234 3.62695H14.8984C15.2091 3.62695 15.4609 3.87881 15.4609 4.18945V6.06445Z" />
</svg>
