<svg width="40" height="30" viewBox="0 0 40 30" xmlns="http://www.w3.org/2000/svg">
<path d="M3.24545 24.1919C3.70061 24.1919 4.144 24.0977 4.57562 23.9094C5.00724 23.721 5.32506 23.5405 5.5291 23.3679C5.73314 23.1952 5.97642 22.9676 6.25893 22.6851C7.26342 23.6896 8.77017 24.1919 10.7792 24.1919H22.0797C22.2838 24.1919 22.4603 24.1173 22.6094 23.9682C22.7585 23.8191 22.8331 23.6425 22.8331 23.4385C22.8331 23.2345 22.7585 23.0579 22.6094 22.9088C22.4603 22.7597 22.2838 22.6851 22.0797 22.6851C21.8914 22.6851 21.6677 22.5086 21.4088 22.1554C21.1498 21.8023 20.9026 21.355 20.6672 20.8135C20.4317 20.272 20.2316 19.6246 20.0668 18.8712C19.902 18.1178 19.8196 17.3801 19.8196 16.6582C19.8196 16.2501 19.8706 15.9048 19.9726 15.6223C20.0747 15.3398 20.2002 15.0965 20.3493 14.8924C20.4984 14.6884 20.6475 14.4647 20.7966 14.2215C20.9457 13.9782 21.0713 13.6172 21.1733 13.1385C21.2753 12.6598 21.3264 12.0751 21.3264 11.3846C21.3264 10.9765 21.2753 10.643 21.1733 10.384C21.0713 10.125 20.9457 9.92882 20.7966 9.79541C20.6475 9.662 20.4984 9.52467 20.3493 9.38341C20.2002 9.24216 20.0747 9.02635 19.9726 8.73598C19.8706 8.44562 19.8196 8.07286 19.8196 7.6177C19.8196 6.6132 20.3219 6.11096 21.3264 6.11096C22.0326 6.11096 22.7115 5.84021 23.3628 5.29873C24.0142 4.75724 24.3398 4.27461 24.3398 3.85084C24.3398 3.48985 24.1711 3.14848 23.8337 2.82673C23.4962 2.50497 23.1627 2.3441 22.8331 2.3441C22.5663 2.3441 22.3191 2.26562 22.0915 2.10867C21.8639 1.95172 21.6481 1.76337 21.4441 1.54364C21.24 1.32391 21.0164 1.10417 20.7731 0.884441C20.5298 0.664708 20.2002 0.476365 19.7843 0.319413C19.3684 0.162461 18.8779 0.0839844 18.3129 0.0839844C17.5752 0.0839844 16.9749 0.170308 16.5118 0.342956C16.0488 0.515603 15.7035 0.73926 15.476 1.01393C15.2484 1.28859 15.064 1.67313 14.9227 2.16753C14.7814 2.66193 14.6833 3.1524 14.6284 3.63896C14.5735 4.12551 14.4754 4.74547 14.3341 5.49884C14.1929 6.25221 14.0124 6.9585 13.7926 7.6177C13.4944 8.51233 12.7921 9.65415 11.6856 11.0432C10.579 12.4322 9.77466 13.2994 9.27242 13.6447C7.26343 14.9788 6.25893 16.9878 6.25893 19.6716C6.25893 20.4407 5.81162 21.1352 4.91699 21.7552C4.02236 22.3751 2.96293 22.6851 1.7387 22.6851C1.33063 22.6851 0.851921 22.6067 0.302588 22.4497C0.443846 22.999 0.789141 23.4267 1.33847 23.7328C1.88781 24.0388 2.52346 24.1919 3.24545 24.1919ZM16.8061 16.6582C16.8532 16.9093 16.916 17.235 16.9945 17.6352C17.0729 18.0354 17.2417 18.6436 17.5006 19.4598C17.7596 20.2759 18.0304 20.8488 18.3129 21.1784H15.2994C15.2994 20.5035 15.3779 19.9188 15.5348 19.4244C15.6918 18.93 15.8644 18.573 16.0528 18.3532C16.2411 18.1335 16.4137 17.8785 16.5707 17.5881C16.7277 17.2977 16.8061 16.9878 16.8061 16.6582Z"/>
<path d="M38.014 20.3367C38.014 20.739 38.2146 21.5438 38.6158 22.7509C39.017 23.958 39.2176 24.7628 39.2176 25.1652C39.2176 25.9825 39.0954 26.7558 38.8509 27.4851C38.6064 28.2144 38.2491 28.8148 37.779 29.2864C37.3088 29.7579 36.7854 29.9937 36.2086 29.9937H27.7834C27.6204 29.9937 27.4794 29.9339 27.3603 29.8145C27.2412 29.695 27.1816 29.5536 27.1816 29.3901C27.1816 29.2266 27.2412 29.0852 27.3603 28.9657C27.4794 28.8463 27.6204 28.7865 27.7834 28.7865C27.9589 28.7865 28.1031 28.7299 28.2159 28.6168C28.3288 28.5036 28.3852 28.359 28.3852 28.183C28.3852 27.856 28.2598 27.4757 28.0091 27.0419C27.7583 26.6081 27.4574 26.1617 27.1064 25.7027C26.7553 25.2437 26.4043 24.7691 26.0532 24.2787C25.7022 23.7883 25.4013 23.2476 25.1505 22.6566C24.8998 22.0656 24.7744 21.4935 24.7744 20.9402C24.7744 19.9972 25.1505 19.2176 25.9028 18.6014C25.7523 18.1488 25.3762 17.9224 24.7744 17.9224C24.4108 17.9224 24.0315 17.7935 23.6366 17.5358C23.2417 17.278 22.9314 17.0077 22.7057 16.7247C22.48 16.4418 22.3672 16.2375 22.3672 16.1117C22.3672 15.9483 22.4267 15.8068 22.5458 15.6874C22.665 15.5679 22.806 15.5082 22.969 15.5082C23.0693 15.5082 23.1759 15.4202 23.2887 15.2441C23.4015 15.0681 23.53 14.848 23.6742 14.584C23.8184 14.3199 23.9845 14.0527 24.1726 13.7824C24.3607 13.512 24.6114 13.2605 24.9248 13.0279C25.2383 12.7953 25.5893 12.635 25.978 12.547V10.6797C26.2664 10.6797 26.6049 10.9029 26.9935 11.3493C27.3822 11.7956 27.633 12.2577 27.7458 12.7356C28.3476 12.9871 28.8052 13.424 29.1186 14.0464C29.4321 14.6689 29.5888 15.3573 29.5888 16.1117C29.5888 16.4764 29.6672 16.8222 29.8239 17.1491C29.9806 17.476 30.2031 17.7684 30.4915 18.0262C30.7799 18.2839 31.015 18.4788 31.1967 18.6109C31.3785 18.7429 31.6074 18.8906 31.8832 19.0541C31.9333 19.0918 31.9709 19.117 31.996 19.1295C32.7232 19.5445 33.325 19.9469 33.8014 20.3367C34.6665 21.0534 35.3843 21.9525 35.9547 23.0338C36.5252 24.1152 36.8104 25.0268 36.8104 25.7687C36.8104 25.819 36.8167 25.8756 36.8292 25.9385C36.8418 26.0013 36.8982 26.0894 36.9985 26.2025C37.0988 26.3157 37.2367 26.3723 37.4122 26.3723C37.5878 26.3723 37.7319 26.2748 37.8448 26.0799C37.9576 25.885 38.014 25.5801 38.014 25.1652C38.014 24.7251 37.9325 24.285 37.7695 23.8449C37.6066 23.4048 37.406 22.9867 37.1677 22.5906C36.9295 22.1945 36.6913 21.7827 36.4531 21.3552C36.2149 20.9277 36.0143 20.4153 35.8513 19.818C35.6883 19.2207 35.6068 18.5889 35.6068 17.9224C35.6068 17.3189 35.8576 16.7656 36.3591 16.2626C36.8606 15.7597 37.4122 15.5082 38.014 15.5082C38.3525 15.5082 38.6378 15.6245 38.8697 15.8571C39.1017 16.0897 39.2176 16.3758 39.2176 16.7153C39.2176 16.9165 39.18 17.0957 39.1048 17.2528C39.0296 17.41 38.9324 17.5546 38.8133 17.6867C38.6942 17.8187 38.6284 17.8973 38.6158 17.9224C38.2146 18.5889 38.014 19.3936 38.014 20.3367Z"/>
</svg>
