<svg width="20" height="22" viewBox="0 0 20 22"  xmlns="http://www.w3.org/2000/svg">
<path d="M2.07113 11.1136C2.07113 11.5655 1.84583 12.4694 1.39523 13.8251C0.94463 15.1809 0.71933 16.0847 0.71933 16.5366C0.71933 17.4546 0.856623 18.3231 1.13121 19.1422C1.40579 19.9613 1.80711 20.6356 2.33515 21.1652C2.8632 21.6948 3.45109 21.9596 4.09883 21.9596H13.5614C13.7445 21.9596 13.9029 21.8925 14.0367 21.7584C14.1704 21.6242 14.2373 21.4653 14.2373 21.2817C14.2373 21.0982 14.1704 20.9393 14.0367 20.8051C13.9029 20.671 13.7445 20.6039 13.5614 20.6039C13.3643 20.6039 13.2024 20.5403 13.0756 20.4132C12.9489 20.2861 12.8855 20.1237 12.8855 19.926C12.8855 19.5588 13.0263 19.1316 13.308 18.6444C13.5896 18.1572 13.9275 17.6558 14.3218 17.1403C14.7161 16.6249 15.1104 16.0918 15.5046 15.541C15.8989 14.9902 16.2369 14.3829 16.5185 13.7192C16.8001 13.0554 16.9409 12.4129 16.9409 11.7915C16.9409 10.7323 16.5185 9.85671 15.6736 9.16471C15.8426 8.6563 16.265 8.4021 16.9409 8.4021C17.3493 8.4021 17.7752 8.25734 18.2188 7.96783C18.6624 7.67832 19.0109 7.37469 19.2643 7.05693C19.5178 6.73918 19.6445 6.50969 19.6445 6.36847C19.6445 6.18488 19.5776 6.026 19.4439 5.89183C19.3101 5.75767 19.1517 5.69059 18.9686 5.69059C18.856 5.69059 18.7363 5.59173 18.6096 5.39402C18.4828 5.1963 18.3385 4.94916 18.1766 4.65259C18.0146 4.35602 17.828 4.05592 17.6168 3.75229C17.4056 3.44865 17.124 3.16621 16.772 2.90494C16.4199 2.64368 16.0256 2.46362 15.5891 2.36476V0.267578C15.2653 0.267578 14.8851 0.518251 14.4485 1.0196C14.012 1.52094 13.7304 2.03994 13.6037 2.57659C12.9278 2.85904 12.4138 3.3498 12.0618 4.04886C11.7097 4.74792 11.5337 5.52112 11.5337 6.36847C11.5337 6.77802 11.4457 7.16638 11.2697 7.53357C11.0937 7.90075 10.8437 8.2291 10.5199 8.51861C10.196 8.80812 9.93199 9.02701 9.72781 9.1753C9.52363 9.32358 9.26665 9.48952 8.95686 9.67311C8.90054 9.71548 8.85829 9.74373 8.83013 9.75785C8.01342 10.2239 7.33752 10.6758 6.80243 11.1136C5.83082 11.9186 5.02467 12.9283 4.38398 14.1429C3.74328 15.3574 3.42293 16.3813 3.42293 17.2145C3.42293 17.271 3.41589 17.3345 3.40181 17.4051C3.38773 17.4758 3.32436 17.5746 3.21171 17.7017C3.09906 17.8288 2.94417 17.8924 2.74703 17.8924C2.54989 17.8924 2.38796 17.7829 2.26123 17.564C2.1345 17.3451 2.07113 17.0027 2.07113 16.5366C2.07113 16.0423 2.16266 15.548 2.34571 15.0538C2.52877 14.5595 2.75407 14.0899 3.02161 13.645C3.28916 13.2002 3.5567 12.7377 3.82425 12.2575C4.09179 11.7774 4.31709 11.2019 4.50015 10.5311C4.6832 9.86024 4.77473 9.15058 4.77473 8.4021C4.77473 7.72422 4.4931 7.10283 3.92986 6.53794C3.36661 5.97304 2.74703 5.69059 2.07113 5.69059C1.69094 5.69059 1.37059 5.82122 1.11008 6.08249C0.849581 6.34375 0.71933 6.66504 0.71933 7.04634C0.71933 7.2723 0.761574 7.47355 0.846062 7.65008C0.93055 7.82661 1.03968 7.98901 1.17345 8.1373C1.30722 8.28559 1.38115 8.37385 1.39523 8.4021C1.84583 9.15058 2.07113 10.0544 2.07113 11.1136Z"/>
</svg>
