<svg width="28" height="28" viewBox="0 0 28 28" xmlns="http://www.w3.org/2000/svg">
<path d="M3.34736 27.96C3.85856 27.96 4.35655 27.8543 4.84131 27.6427C5.32608 27.4312 5.68304 27.2285 5.9122 27.0346C6.14136 26.8407 6.41459 26.5851 6.73189 26.2678C7.86007 27.3959 9.55233 27.96 11.8087 27.96H24.5007C24.7298 27.96 24.9281 27.8763 25.0956 27.7088C25.2631 27.5414 25.3468 27.343 25.3468 27.1139C25.3468 26.8847 25.2631 26.6864 25.0956 26.519C24.9281 26.3515 24.7298 26.2678 24.5007 26.2678C24.2891 26.2678 24.0379 26.0694 23.7471 25.6728C23.4562 25.2762 23.1786 24.7738 22.9142 24.1656C22.6498 23.5575 22.425 22.8303 22.2399 21.9842C22.0548 21.1381 21.9623 20.3096 21.9623 19.4987C21.9623 19.0404 22.0196 18.6526 22.1341 18.3353C22.2487 18.018 22.3897 17.7447 22.5572 17.5156C22.7247 17.2864 22.8921 17.0352 23.0596 16.762C23.2271 16.4888 23.3681 16.0833 23.4827 15.5457C23.5972 15.008 23.6545 14.3514 23.6545 13.5758C23.6545 13.1175 23.5972 12.7429 23.4827 12.452C23.3681 12.1611 23.2271 11.9408 23.0596 11.791C22.8921 11.6411 22.7247 11.4869 22.5572 11.3282C22.3897 11.1696 22.2487 10.9272 22.1341 10.6011C22.0196 10.275 21.9623 9.85632 21.9623 9.34511C21.9623 8.21694 22.5264 7.65285 23.6545 7.65285C24.4478 7.65285 25.2102 7.34877 25.9417 6.74061C26.6733 6.13245 27.0391 5.5904 27.0391 5.11445C27.0391 4.70901 26.8496 4.32561 26.4706 3.96424C26.0916 3.60287 25.717 3.42219 25.3468 3.42219C25.0471 3.42219 24.7695 3.33405 24.5139 3.15777C24.2583 2.98149 24.0159 2.76996 23.7867 2.52317C23.5576 2.27638 23.3064 2.02959 23.0332 1.7828C22.7599 1.53602 22.3897 1.32448 21.9226 1.14821C21.4555 0.971928 20.9046 0.883789 20.27 0.883789C19.4415 0.883789 18.7672 0.980742 18.2472 1.17465C17.7272 1.36855 17.3394 1.61975 17.0838 1.92823C16.8282 2.23672 16.6211 2.6686 16.4624 3.22387C16.3038 3.77915 16.1936 4.33002 16.1319 4.87648C16.0702 5.42294 15.96 6.11923 15.8014 6.96536C15.6427 7.8115 15.44 8.60475 15.1932 9.34511C14.8583 10.3499 14.0694 11.6323 12.8267 13.1924C11.5839 14.7524 10.6805 15.7264 10.1164 16.1142C7.86007 17.6125 6.73189 19.8689 6.73189 22.8832C6.73189 23.747 6.2295 24.527 5.22472 25.2233C4.21993 25.9196 3.03006 26.2678 1.6551 26.2678C1.19677 26.2678 0.659128 26.1796 0.0421562 26.0033C0.200806 26.6203 0.588617 27.1007 1.20559 27.4444C1.82256 27.7881 2.53648 27.96 3.34736 27.96ZM18.5777 19.4987C18.6306 19.7807 18.7011 20.1465 18.7893 20.596C18.8774 21.0455 19.0669 21.7286 19.3578 22.6453C19.6486 23.5619 19.9527 24.2053 20.27 24.5755H16.8855C16.8855 23.8175 16.9736 23.1609 17.1499 22.6056C17.3262 22.0503 17.5201 21.6493 17.7316 21.4025C17.9431 21.1557 18.137 20.8693 18.3133 20.5431C18.4896 20.217 18.5777 19.8689 18.5777 19.4987Z"/>
</svg>
