<svg width="31" height="24" viewBox="0 0 31 24" xmlns="http://www.w3.org/2000/svg">
<path d="M15.0699 6.15617L5.59977 13.8673V22.1898C5.59977 22.4053 5.68636 22.612 5.84049 22.7644C5.99461 22.9167 6.20365 23.0023 6.42161 23.0023L12.1776 22.9876C12.3948 22.9865 12.6028 22.9005 12.756 22.7482C12.9093 22.596 12.9953 22.3899 12.9953 22.1751V17.3148C12.9953 17.0994 13.0819 16.8927 13.236 16.7403C13.3901 16.5879 13.5992 16.5023 13.8171 16.5023H17.1045C17.3225 16.5023 17.5315 16.5879 17.6856 16.7403C17.8397 16.8927 17.9263 17.0994 17.9263 17.3148V22.1716C17.926 22.2785 17.947 22.3844 17.9882 22.4833C18.0293 22.5821 18.0898 22.672 18.1661 22.7477C18.2425 22.8235 18.3332 22.8835 18.4331 22.9245C18.533 22.9655 18.64 22.9866 18.7482 22.9866L24.5021 23.0023C24.72 23.0023 24.9291 22.9167 25.0832 22.7644C25.2373 22.612 25.3239 22.4053 25.3239 22.1898V13.8617L15.8558 6.15617C15.7445 6.06747 15.6058 6.0191 15.4629 6.0191C15.3199 6.0191 15.1812 6.06747 15.0699 6.15617ZM30.0289 11.3973L25.7348 7.89797V0.864258C25.7348 0.702642 25.6699 0.547645 25.5543 0.433365C25.4387 0.319085 25.2819 0.254883 25.1185 0.254883H22.242C22.0785 0.254883 21.9218 0.319085 21.8062 0.433365C21.6906 0.547645 21.6256 0.702642 21.6256 0.864258V4.55149L17.0269 0.810938C16.5856 0.451904 16.0318 0.255601 15.4603 0.255601C14.8888 0.255601 14.335 0.451904 13.8937 0.810938L0.891662 11.3973C0.829248 11.4483 0.777609 11.511 0.739698 11.5817C0.701786 11.6524 0.678345 11.7299 0.670713 11.8096C0.663081 11.8893 0.671407 11.9697 0.695217 12.0462C0.719027 12.1227 0.757854 12.1938 0.809479 12.2555L2.11928 13.8297C2.17077 13.8916 2.23409 13.9429 2.30564 13.9805C2.37718 14.0182 2.45553 14.0415 2.53621 14.0492C2.61689 14.0569 2.69831 14.0488 2.77581 14.0253C2.85331 14.0019 2.92537 13.9635 2.98787 13.9125L15.0699 4.07414C15.1812 3.98544 15.3199 3.93707 15.4629 3.93707C15.6058 3.93707 15.7445 3.98544 15.8558 4.07414L27.9384 13.9125C28.0008 13.9635 28.0727 14.0019 28.1501 14.0255C28.2275 14.049 28.3088 14.0572 28.3895 14.0497C28.4701 14.0421 28.5484 14.019 28.6199 13.9815C28.6915 13.944 28.7549 13.893 28.8065 13.8313L30.1163 12.257C30.1678 12.195 30.2065 12.1235 30.23 12.0467C30.2536 11.9698 30.2615 11.8891 30.2534 11.8092C30.2453 11.7293 30.2213 11.6518 30.1827 11.5811C30.1442 11.5104 30.092 11.448 30.0289 11.3973Z" />
</svg>
