<svg width="1423" height="790" viewBox="0 0 1423 790" fill="none" xmlns="http://www.w3.org/2000/svg">
<path d="M77.6375 105.84C80.9516 104.761 79.6593 97.8457 86.4988 97.8457V117.591C82.4523 117.591 81.9713 119.484 78.4074 118.747C72.8197 117.591 72.1848 112.409 73.6884 109.404C74.4207 107.94 76.9629 106.097 77.6375 105.84Z" fill="#C62828" fill-opacity="0.15"/>
<path d="M95.3606 105.84C92.0464 104.761 93.3388 97.8457 86.4992 97.8457V117.591C90.5458 117.591 91.0268 119.484 94.5907 118.747C100.178 117.591 100.813 112.409 99.3096 109.404C98.5773 107.94 96.0351 106.097 95.3606 105.84Z" fill="#C62828" fill-opacity="0.15"/>
<ellipse cx="72.4097" cy="98.7738" rx="3.80445" ry="5.62806" transform="rotate(-21.1898 72.4097 98.7738)" fill="#C62828" fill-opacity="0.15"/>
<ellipse rx="3.80445" ry="5.62806" transform="matrix(-0.932388 -0.361459 -0.361459 0.932388 100.288 98.7737)" fill="#C62828" fill-opacity="0.15"/>
<ellipse cx="80.6812" cy="90.5748" rx="4.19905" ry="6.21181" transform="rotate(-10.8834 80.6812 90.5748)" fill="#C62828" fill-opacity="0.15"/>
<ellipse rx="4.19905" ry="6.21181" transform="matrix(-0.982013 -0.188811 -0.188811 0.982013 92.0161 90.5748)" fill="#C62828" fill-opacity="0.15"/>
<path d="M118.355 129.857C121.84 129.905 122.847 122.942 129.321 125.149L122.951 143.838C119.121 142.533 118.055 144.169 114.92 142.322C110.003 139.425 111.074 134.315 113.467 131.956C114.632 130.807 117.633 129.882 118.355 129.857Z" fill="#C62828" fill-opacity="0.08"/>
<path d="M135.13 135.575C132.341 133.484 135.795 127.356 129.321 125.149L122.951 143.839C126.781 145.144 126.626 147.091 130.237 147.543C135.899 148.252 138.172 143.551 137.718 140.222C137.497 138.6 135.685 136.035 135.13 135.575Z" fill="#C62828" fill-opacity="0.08"/>
<ellipse cx="115.686" cy="121.482" rx="3.80445" ry="5.62806" transform="rotate(-2.36866 115.686 121.482)" fill="#C62828" fill-opacity="0.08"/>
<ellipse rx="3.80445" ry="5.62806" transform="matrix(-0.765921 -0.642935 -0.642935 0.765921 142.073 130.476)" fill="#C62828" fill-opacity="0.08"/>
<ellipse cx="126.16" cy="116.39" rx="4.19905" ry="6.21181" transform="rotate(7.93776 126.16 116.39)" fill="#C62828" fill-opacity="0.08"/>
<ellipse rx="4.19905" ry="6.21181" transform="matrix(-0.868592 -0.495528 -0.495528 0.868592 136.89 120.047)" fill="#C62828" fill-opacity="0.08"/>
<path d="M403.465 518.455C405.395 515.553 400.092 510.931 405.456 506.688L417.705 522.175C414.531 524.685 415.328 526.469 412.075 528.101C406.976 530.661 403.263 526.99 402.578 523.7C402.245 522.098 403.095 519.075 403.465 518.455Z" fill="#C62828" fill-opacity="0.08"/>
<path d="M417.367 507.461C414.099 508.67 410.822 502.445 405.458 506.688L417.707 522.175C420.88 519.664 422.432 520.851 424.77 518.062C428.436 513.689 425.719 509.231 422.675 507.806C421.193 507.113 418.056 507.244 417.367 507.461Z" fill="#C62828" fill-opacity="0.08"/>
<ellipse cx="394.981" cy="516.156" rx="3.80445" ry="5.62806" transform="rotate(-59.5306 394.981 516.156)" fill="#C62828" fill-opacity="0.08"/>
<ellipse rx="3.80445" ry="5.62806" transform="matrix(-0.955531 0.294889 0.294889 0.955531 416.849 498.862)" fill="#C62828" fill-opacity="0.08"/>
<ellipse cx="396.384" cy="504.594" rx="4.19905" ry="6.21181" transform="rotate(-49.2241 396.384 504.594)" fill="#C62828" fill-opacity="0.08"/>
<ellipse rx="4.19905" ry="6.21181" transform="matrix(-0.887355 0.461087 0.461087 0.887355 405.275 497.562)" fill="#C62828" fill-opacity="0.08"/>
<path d="M185.466 292.014C188.477 290.257 185.748 283.773 192.432 282.323L196.617 301.62C192.663 302.477 192.594 304.429 188.955 304.464C183.249 304.519 181.53 299.589 182.363 296.334C182.768 294.748 184.862 292.408 185.466 292.014Z" fill="#C62828" fill-opacity="0.15"/>
<path d="M202.788 288.257C199.32 287.905 199.117 280.873 192.433 282.323L196.618 301.619C200.573 300.762 201.444 302.51 204.771 301.034C209.987 298.72 209.509 293.521 207.402 290.903C206.376 289.628 203.501 288.365 202.788 288.257Z" fill="#C62828" fill-opacity="0.15"/>
<ellipse cx="178.861" cy="286.217" rx="3.80445" ry="5.62806" transform="rotate(-33.4269 178.861 286.217)" fill="#C62828" fill-opacity="0.15"/>
<ellipse rx="3.80445" ry="5.62806" transform="matrix(-0.987817 -0.155621 -0.155621 0.987817 206.104 280.307)" fill="#C62828" fill-opacity="0.15"/>
<ellipse cx="185.207" cy="276.451" rx="4.19905" ry="6.21181" transform="rotate(-23.1205 185.207 276.451)" fill="#C62828" fill-opacity="0.15"/>
<ellipse rx="4.19905" ry="6.21181" transform="matrix(-0.999721 0.0236229 0.0236229 0.999721 196.283 274.048)" fill="#C62828" fill-opacity="0.15"/>
<path d="M937.702 168.532C941.016 167.453 939.724 160.538 946.563 160.538V180.283C942.517 180.283 942.036 182.176 938.472 181.439C932.884 180.283 932.249 175.101 933.753 172.096C934.485 170.633 937.027 168.789 937.702 168.532Z" fill="#C62828" fill-opacity="0.08"/>
<path d="M955.425 168.532C952.111 167.453 953.403 160.538 946.564 160.538V180.283C950.61 180.283 951.091 182.176 954.655 181.439C960.243 180.283 960.878 175.101 959.374 172.096C958.642 170.633 956.1 168.789 955.425 168.532Z" fill="#C62828" fill-opacity="0.08"/>
<ellipse cx="932.474" cy="161.466" rx="3.80445" ry="5.62806" transform="rotate(-21.1898 932.474 161.466)" fill="#C62828" fill-opacity="0.08"/>
<ellipse rx="3.80445" ry="5.62806" transform="matrix(-0.932388 -0.361459 -0.361459 0.932388 960.352 161.466)" fill="#C62828" fill-opacity="0.08"/>
<ellipse cx="940.746" cy="153.267" rx="4.19905" ry="6.21181" transform="rotate(-10.8834 940.746 153.267)" fill="#C62828" fill-opacity="0.08"/>
<ellipse rx="4.19905" ry="6.21181" transform="matrix(-0.982013 -0.188811 -0.188811 0.982013 952.081 153.267)" fill="#C62828" fill-opacity="0.08"/>
<path d="M522.88 322.066C526.194 320.987 524.901 314.072 531.741 314.072V333.818C527.694 333.818 527.213 335.711 523.65 334.973C518.062 333.818 517.427 328.635 518.931 325.63C519.663 324.167 522.205 322.323 522.88 322.066Z" fill="#C62828" fill-opacity="0.08"/>
<path d="M540.603 322.066C537.289 320.987 538.581 314.072 531.741 314.072V333.818C535.788 333.818 536.269 335.711 539.833 334.973C545.421 333.818 546.055 328.635 544.552 325.63C543.82 324.167 541.277 322.323 540.603 322.066Z" fill="#C62828" fill-opacity="0.08"/>
<ellipse cx="517.652" cy="315" rx="3.80445" ry="5.62806" transform="rotate(-21.1898 517.652 315)" fill="#C62828" fill-opacity="0.08"/>
<ellipse rx="3.80445" ry="5.62806" transform="matrix(-0.932388 -0.361459 -0.361459 0.932388 545.53 315)" fill="#C62828" fill-opacity="0.08"/>
<ellipse cx="525.923" cy="306.801" rx="4.19905" ry="6.21181" transform="rotate(-10.8834 525.923 306.801)" fill="#C62828" fill-opacity="0.08"/>
<ellipse rx="4.19905" ry="6.21181" transform="matrix(-0.982013 -0.188811 -0.188811 0.982013 537.258 306.801)" fill="#C62828" fill-opacity="0.08"/>
<path d="M695.93 95.3047C699.245 94.2258 697.952 87.3105 704.792 87.3105V107.056C700.745 107.056 700.264 108.949 696.7 108.212C691.113 107.056 690.478 101.874 691.981 98.8687C692.714 97.4051 695.256 95.5616 695.93 95.3047Z" fill="#C62828" fill-opacity="0.15"/>
<path d="M713.654 95.3047C710.339 94.2258 711.632 87.3105 704.792 87.3105V107.056C708.839 107.056 709.32 108.949 712.884 108.212C718.471 107.056 719.106 101.874 717.603 98.8687C716.87 97.4051 714.328 95.5616 713.654 95.3047Z" fill="#C62828" fill-opacity="0.15"/>
<ellipse cx="690.703" cy="88.2386" rx="3.80445" ry="5.62806" transform="rotate(-21.1898 690.703 88.2386)" fill="#C62828" fill-opacity="0.15"/>
<ellipse rx="3.80445" ry="5.62806" transform="matrix(-0.932388 -0.361459 -0.361459 0.932388 718.581 88.2386)" fill="#C62828" fill-opacity="0.15"/>
<ellipse cx="698.974" cy="80.0397" rx="4.19905" ry="6.21181" transform="rotate(-10.8834 698.974 80.0397)" fill="#C62828" fill-opacity="0.15"/>
<ellipse rx="4.19905" ry="6.21181" transform="matrix(-0.982013 -0.188811 -0.188811 0.982013 710.309 80.0397)" fill="#C62828" fill-opacity="0.15"/>
<path d="M590.055 676.601C593.519 676.987 595.197 670.155 601.426 672.979L593.274 690.962C589.588 689.292 588.368 690.817 585.427 688.674C580.815 685.314 582.376 680.332 584.987 678.216C586.258 677.186 589.334 676.556 590.055 676.601Z" fill="#C62828" fill-opacity="0.08"/>
<path d="M606.197 683.919C603.624 681.568 607.657 675.803 601.427 672.979L593.275 690.963C596.96 692.634 596.617 694.556 600.167 695.356C605.733 696.611 608.451 692.153 608.323 688.795C608.26 687.16 606.706 684.431 606.197 683.919Z" fill="#C62828" fill-opacity="0.08"/>
<ellipse cx="588.211" cy="668.007" rx="3.80445" ry="5.62806" transform="rotate(3.19663 588.211 668.007)" fill="#C62828" fill-opacity="0.08"/>
<ellipse rx="3.80445" ry="5.62806" transform="matrix(-0.699959 -0.714183 -0.714183 0.699959 613.603 679.517)" fill="#C62828" fill-opacity="0.08"/>
<ellipse cx="599.131" cy="663.955" rx="4.19905" ry="6.21181" transform="rotate(13.503 599.131 663.955)" fill="#C62828" fill-opacity="0.08"/>
<ellipse rx="4.19905" ry="6.21181" transform="matrix(-0.816441 -0.577429 -0.577429 0.816441 609.454 668.635)" fill="#C62828" fill-opacity="0.08"/>
<path d="M1005.59 682.669C1008.9 681.59 1007.61 674.675 1014.45 674.675V694.42C1010.41 694.42 1009.92 696.313 1006.36 695.576C1000.77 694.42 1000.14 689.238 1001.64 686.233C1002.37 684.769 1004.92 682.926 1005.59 682.669Z" fill="#C62828" fill-opacity="0.15"/>
<path d="M1023.31 682.669C1020 681.59 1021.29 674.675 1014.45 674.675V694.42C1018.5 694.42 1018.98 696.313 1022.54 695.576C1028.13 694.42 1028.77 689.238 1027.26 686.233C1026.53 684.769 1023.99 682.926 1023.31 682.669Z" fill="#C62828" fill-opacity="0.15"/>
<ellipse cx="1000.36" cy="675.603" rx="3.80445" ry="5.62806" transform="rotate(-21.1898 1000.36 675.603)" fill="#C62828" fill-opacity="0.15"/>
<ellipse rx="3.80445" ry="5.62806" transform="matrix(-0.932388 -0.361459 -0.361459 0.932388 1028.24 675.603)" fill="#C62828" fill-opacity="0.15"/>
<ellipse cx="1008.63" cy="667.404" rx="4.19905" ry="6.21181" transform="rotate(-10.8834 1008.63 667.404)" fill="#C62828" fill-opacity="0.15"/>
<ellipse rx="4.19905" ry="6.21181" transform="matrix(-0.982013 -0.188811 -0.188811 0.982013 1019.97 667.404)" fill="#C62828" fill-opacity="0.15"/>
<path d="M1284.28 311.342C1287.6 310.263 1286.31 303.348 1293.15 303.348V323.093C1289.1 323.093 1288.62 324.986 1285.05 324.249C1279.47 323.093 1278.83 317.911 1280.33 314.906C1281.07 313.442 1283.61 311.599 1284.28 311.342Z" fill="#C62828" fill-opacity="0.15"/>
<path d="M1302.01 311.342C1298.69 310.263 1299.99 303.348 1293.15 303.348V323.093C1297.19 323.093 1297.67 324.986 1301.24 324.249C1306.82 323.093 1307.46 317.911 1305.96 314.906C1305.22 313.442 1302.68 311.599 1302.01 311.342Z" fill="#C62828" fill-opacity="0.15"/>
<ellipse cx="1279.06" cy="304.276" rx="3.80445" ry="5.62806" transform="rotate(-21.1898 1279.06 304.276)" fill="#C62828" fill-opacity="0.15"/>
<ellipse rx="3.80445" ry="5.62806" transform="matrix(-0.932388 -0.361459 -0.361459 0.932388 1306.93 304.276)" fill="#C62828" fill-opacity="0.15"/>
<ellipse cx="1287.33" cy="296.077" rx="4.19905" ry="6.21181" transform="rotate(-10.8834 1287.33 296.077)" fill="#C62828" fill-opacity="0.15"/>
<ellipse rx="4.19905" ry="6.21181" transform="matrix(-0.982013 -0.188811 -0.188811 0.982013 1298.66 296.077)" fill="#C62828" fill-opacity="0.15"/>
<path d="M1345.79 48.8133C1347.84 45.9911 1342.72 41.1595 1348.25 37.1358L1359.87 53.1027C1356.6 55.4833 1357.32 57.2971 1354.01 58.7975C1348.81 61.1501 1345.25 57.333 1344.69 54.0185C1344.43 52.4042 1345.4 49.4179 1345.79 48.8133Z" fill="#C62828" fill-opacity="0.08"/>
<path d="M1360.12 38.387C1356.81 39.4643 1353.78 33.112 1348.25 37.1357L1359.87 53.1026C1363.14 50.7221 1364.64 51.9699 1367.09 49.2771C1370.93 45.0553 1368.39 40.4912 1365.41 38.9458C1363.96 38.1931 1360.82 38.198 1360.12 38.387Z" fill="#C62828" fill-opacity="0.08"/>
<ellipse cx="1337.4" cy="46.1749" rx="3.80445" ry="5.62806" transform="rotate(-57.2261 1337.4 46.1749)" fill="#C62828" fill-opacity="0.08"/>
<ellipse rx="3.80445" ry="5.62806" transform="matrix(-0.966616 0.256228 0.256228 0.966616 1359.95 29.7744)" fill="#C62828" fill-opacity="0.08"/>
<ellipse cx="1339.27" cy="34.6788" rx="4.19905" ry="6.21181" transform="rotate(-46.9196 1339.27 34.6788)" fill="#C62828" fill-opacity="0.08"/>
<ellipse rx="4.19905" ry="6.21181" transform="matrix(-0.905178 0.425034 0.425034 0.905178 1348.44 28.011)" fill="#C62828" fill-opacity="0.08"/>
<path d="M1044.63 25.1445C1047.95 24.0656 1046.66 17.1504 1053.49 17.1504V36.8957C1049.45 36.8957 1048.97 38.7887 1045.4 38.0515C1039.82 36.8957 1039.18 31.7135 1040.68 28.7085C1041.42 27.245 1043.96 25.4014 1044.63 25.1445Z" fill="#C62828" fill-opacity="0.15"/>
<path d="M1062.36 25.1445C1059.04 24.0656 1060.33 17.1504 1053.5 17.1504V36.8957C1057.54 36.8957 1058.02 38.7887 1061.59 38.0515C1067.17 36.8957 1067.81 31.7135 1066.31 28.7085C1065.57 27.245 1063.03 25.4014 1062.36 25.1445Z" fill="#C62828" fill-opacity="0.15"/>
<ellipse cx="1039.41" cy="18.0784" rx="3.80445" ry="5.62806" transform="rotate(-21.1898 1039.41 18.0784)" fill="#C62828" fill-opacity="0.15"/>
<ellipse rx="3.80445" ry="5.62806" transform="matrix(-0.932388 -0.361459 -0.361459 0.932388 1067.28 18.0784)" fill="#C62828" fill-opacity="0.15"/>
<ellipse cx="1047.68" cy="9.87952" rx="4.19905" ry="6.21181" transform="rotate(-10.8834 1047.68 9.87952)" fill="#C62828" fill-opacity="0.15"/>
<ellipse rx="4.19905" ry="6.21181" transform="matrix(-0.982013 -0.188811 -0.188811 0.982013 1059.01 9.87952)" fill="#C62828" fill-opacity="0.15"/>
<path d="M387.971 23.1084C391.286 22.0295 389.993 15.1143 396.833 15.1143V34.8595C392.786 34.8595 392.305 36.7526 388.741 36.0154C383.154 34.8595 382.519 29.6774 384.022 26.6724C384.755 25.2088 387.297 23.3653 387.971 23.1084Z" fill="#C62828" fill-opacity="0.08"/>
<path d="M405.695 23.1084C402.38 22.0295 403.673 15.1143 396.833 15.1143V34.8595C400.88 34.8595 401.361 36.7526 404.925 36.0154C410.512 34.8595 411.147 29.6774 409.644 26.6724C408.911 25.2088 406.369 23.3653 405.695 23.1084Z" fill="#C62828" fill-opacity="0.08"/>
<ellipse cx="382.744" cy="16.0423" rx="3.80445" ry="5.62806" transform="rotate(-21.1898 382.744 16.0423)" fill="#C62828" fill-opacity="0.08"/>
<ellipse rx="3.80445" ry="5.62806" transform="matrix(-0.932388 -0.361459 -0.361459 0.932388 410.622 16.0423)" fill="#C62828" fill-opacity="0.08"/>
<ellipse cx="391.015" cy="7.84339" rx="4.19905" ry="6.21181" transform="rotate(-10.8834 391.015 7.84339)" fill="#C62828" fill-opacity="0.08"/>
<ellipse rx="4.19905" ry="6.21181" transform="matrix(-0.982013 -0.188811 -0.188811 0.982013 402.35 7.84339)" fill="#C62828" fill-opacity="0.08"/>
<path d="M360.093 228.361C363.407 227.282 362.114 220.367 368.954 220.367V240.112C364.907 240.112 364.426 242.006 360.862 241.268C355.275 240.112 354.64 234.93 356.143 231.925C356.876 230.462 359.418 228.618 360.093 228.361Z" fill="#C62828" fill-opacity="0.15"/>
<path d="M377.816 228.361C374.502 227.282 375.794 220.367 368.954 220.367V240.112C373.001 240.112 373.482 242.006 377.046 241.268C382.633 240.112 383.268 234.93 381.765 231.925C381.032 230.462 378.49 228.618 377.816 228.361Z" fill="#C62828" fill-opacity="0.15"/>
<ellipse cx="354.865" cy="221.295" rx="3.80445" ry="5.62806" transform="rotate(-21.1898 354.865 221.295)" fill="#C62828" fill-opacity="0.15"/>
<ellipse rx="3.80445" ry="5.62806" transform="matrix(-0.932388 -0.361459 -0.361459 0.932388 382.743 221.295)" fill="#C62828" fill-opacity="0.15"/>
<ellipse cx="363.136" cy="213.096" rx="4.19905" ry="6.21181" transform="rotate(-10.8834 363.136 213.096)" fill="#C62828" fill-opacity="0.15"/>
<ellipse rx="4.19905" ry="6.21181" transform="matrix(-0.982013 -0.188811 -0.188811 0.982013 374.471 213.096)" fill="#C62828" fill-opacity="0.15"/>
<path d="M91.1987 471.373C93.0285 468.407 87.5703 463.969 92.7867 459.545L105.557 474.604C102.471 477.222 103.329 478.976 100.134 480.719C95.1246 483.452 91.2887 479.91 90.4919 476.646C90.1038 475.056 90.8504 472.005 91.1987 471.373Z" fill="#C62828" fill-opacity="0.08"/>
<path d="M104.716 459.911C101.491 461.231 98.004 455.121 92.7876 459.545L105.558 474.604C108.645 471.987 110.236 473.12 112.477 470.252C115.991 465.757 113.124 461.394 110.033 460.075C108.528 459.432 105.397 459.67 104.716 459.911Z" fill="#C62828" fill-opacity="0.08"/>
<ellipse cx="82.6404" cy="469.365" rx="3.80445" ry="5.62806" transform="rotate(-61.4886 82.6404 469.365)" fill="#C62828" fill-opacity="0.08"/>
<ellipse rx="3.80445" ry="5.62806" transform="matrix(-0.944898 0.327366 0.327366 0.944898 103.904 451.335)" fill="#C62828" fill-opacity="0.08"/>
<ellipse cx="83.6459" cy="457.762" rx="4.19905" ry="6.21181" transform="rotate(-51.1822 83.6459 457.762)" fill="#C62828" fill-opacity="0.08"/>
<ellipse rx="4.19905" ry="6.21181" transform="matrix(-0.871082 0.491137 0.491137 0.871082 92.2916 450.431)" fill="#C62828" fill-opacity="0.08"/>
<path d="M445.72 493.582C449.034 492.503 447.741 485.588 454.581 485.588V505.333C450.534 505.333 450.053 507.226 446.489 506.489C440.902 505.333 440.267 500.151 441.77 497.146C442.503 495.682 445.045 493.839 445.72 493.582Z" fill="#C62828" fill-opacity="0.15"/>
<path d="M463.443 493.582C460.128 492.503 461.421 485.588 454.581 485.588V505.333C458.628 505.333 459.109 507.226 462.673 506.489C468.26 505.333 468.895 500.151 467.392 497.146C466.659 495.682 464.117 493.839 463.443 493.582Z" fill="#C62828" fill-opacity="0.15"/>
<ellipse cx="440.492" cy="486.516" rx="3.80445" ry="5.62806" transform="rotate(-21.1898 440.492 486.516)" fill="#C62828" fill-opacity="0.15"/>
<ellipse rx="3.80445" ry="5.62806" transform="matrix(-0.932388 -0.361459 -0.361459 0.932388 468.37 486.516)" fill="#C62828" fill-opacity="0.15"/>
<ellipse cx="448.763" cy="478.317" rx="4.19905" ry="6.21181" transform="rotate(-10.8834 448.763 478.317)" fill="#C62828" fill-opacity="0.15"/>
<ellipse rx="4.19905" ry="6.21181" transform="matrix(-0.982013 -0.188811 -0.188811 0.982013 460.098 478.317)" fill="#C62828" fill-opacity="0.15"/>
<path d="M221.548 677.203C224.862 676.124 223.569 669.209 230.409 669.209V688.954C226.362 688.954 225.881 690.847 222.318 690.11C216.73 688.954 216.095 683.772 217.599 680.767C218.331 679.304 220.873 677.46 221.548 677.203Z" fill="#C62828" fill-opacity="0.15"/>
<path d="M239.271 677.203C235.957 676.124 237.249 669.209 230.409 669.209V688.954C234.456 688.954 234.937 690.847 238.501 690.11C244.089 688.954 244.723 683.772 243.22 680.767C242.487 679.304 239.945 677.46 239.271 677.203Z" fill="#C62828" fill-opacity="0.15"/>
<ellipse cx="216.32" cy="670.137" rx="3.80445" ry="5.62806" transform="rotate(-21.1898 216.32 670.137)" fill="#C62828" fill-opacity="0.15"/>
<ellipse rx="3.80445" ry="5.62806" transform="matrix(-0.932388 -0.361459 -0.361459 0.932388 244.198 670.137)" fill="#C62828" fill-opacity="0.15"/>
<ellipse cx="224.591" cy="661.938" rx="4.19905" ry="6.21181" transform="rotate(-10.8834 224.591 661.938)" fill="#C62828" fill-opacity="0.15"/>
<ellipse rx="4.19905" ry="6.21181" transform="matrix(-0.982013 -0.188811 -0.188811 0.982013 235.926 661.938)" fill="#C62828" fill-opacity="0.15"/>
<path d="M804.526 561.548C807.84 560.469 806.548 553.554 813.387 553.554V573.299C809.341 573.299 808.86 575.192 805.296 574.455C799.708 573.299 799.073 568.117 800.577 565.112C801.309 563.648 803.852 561.805 804.526 561.548Z" fill="#C62828" fill-opacity="0.15"/>
<path d="M822.249 561.548C818.935 560.469 820.227 553.554 813.388 553.554V573.299C817.434 573.299 817.915 575.192 821.479 574.455C827.067 573.299 827.702 568.117 826.198 565.112C825.466 563.648 822.924 561.805 822.249 561.548Z" fill="#C62828" fill-opacity="0.15"/>
<ellipse cx="799.298" cy="554.482" rx="3.80445" ry="5.62806" transform="rotate(-21.1898 799.298 554.482)" fill="#C62828" fill-opacity="0.15"/>
<ellipse rx="3.80445" ry="5.62806" transform="matrix(-0.932388 -0.361459 -0.361459 0.932388 827.176 554.482)" fill="#C62828" fill-opacity="0.15"/>
<ellipse cx="807.57" cy="546.283" rx="4.19905" ry="6.21181" transform="rotate(-10.8834 807.57 546.283)" fill="#C62828" fill-opacity="0.15"/>
<ellipse rx="4.19905" ry="6.21181" transform="matrix(-0.982013 -0.188811 -0.188811 0.982013 818.905 546.283)" fill="#C62828" fill-opacity="0.15"/>
<path d="M775.834 323.987C779.315 323.816 779.884 316.804 786.484 318.6L781.299 337.653C777.395 336.59 776.433 338.29 773.188 336.643C768.1 334.061 768.848 328.894 771.088 326.389C772.179 325.169 775.116 324.058 775.834 323.987Z" fill="#C62828" fill-opacity="0.15"/>
<path d="M792.936 328.64C790.022 326.729 793.085 320.396 786.485 318.6L781.3 337.652C785.205 338.715 785.172 340.668 788.805 340.892C794.5 341.244 796.473 336.411 795.811 333.116C795.489 331.512 793.52 329.065 792.936 328.64Z" fill="#C62828" fill-opacity="0.15"/>
<ellipse cx="772.646" cy="315.797" rx="3.80445" ry="5.62806" transform="rotate(-5.96717 772.646 315.797)" fill="#C62828" fill-opacity="0.15"/>
<ellipse rx="3.80445" ry="5.62806" transform="matrix(-0.804764 -0.593594 -0.593594 0.804764 799.545 323.117)" fill="#C62828" fill-opacity="0.15"/>
<ellipse cx="782.78" cy="310.057" rx="4.19905" ry="6.21181" transform="rotate(4.33924 782.78 310.057)" fill="#C62828" fill-opacity="0.15"/>
<ellipse rx="4.19905" ry="6.21181" transform="matrix(-0.897981 -0.440034 -0.440034 0.897981 793.717 313.033)" fill="#C62828" fill-opacity="0.15"/>
<path d="M1013.04 427.153C1016.48 427.689 1018.45 420.936 1024.55 424.027L1015.63 441.641C1012.02 439.812 1010.73 441.283 1007.89 439.015C1003.43 435.458 1005.2 430.548 1007.9 428.548C1009.22 427.573 1012.32 427.078 1013.04 427.153Z" fill="#C62828" fill-opacity="0.08"/>
<path d="M1028.85 435.163C1026.38 432.703 1030.65 427.119 1024.55 424.027L1015.63 441.641C1019.24 443.47 1018.81 445.376 1022.32 446.329C1027.83 447.823 1030.74 443.488 1030.76 440.128C1030.77 438.491 1029.33 435.697 1028.85 435.163Z" fill="#C62828" fill-opacity="0.08"/>
<ellipse cx="1011.57" cy="418.487" rx="3.80445" ry="5.62806" transform="rotate(5.68107 1011.57 418.487)" fill="#C62828" fill-opacity="0.08"/>
<ellipse rx="3.80445" ry="5.62806" transform="matrix(-0.668342 -0.743854 -0.743854 0.668342 1036.43 431.088)" fill="#C62828" fill-opacity="0.08"/>
<ellipse cx="1022.65" cy="414.912" rx="4.19905" ry="6.21181" transform="rotate(15.9875 1022.65 414.912)" fill="#C62828" fill-opacity="0.08"/>
<ellipse rx="4.19905" ry="6.21181" transform="matrix(-0.790643 -0.612277 -0.612277 0.790643 1032.76 420.035)" fill="#C62828" fill-opacity="0.08"/>
<path d="M1191.38 168.533C1194.69 167.454 1193.4 160.539 1200.24 160.539V180.284C1196.19 180.284 1195.71 182.177 1192.15 181.44C1186.56 180.284 1185.92 175.102 1187.43 172.097C1188.16 170.634 1190.7 168.79 1191.38 168.533Z" fill="#C62828" fill-opacity="0.15"/>
<path d="M1209.1 168.533C1205.78 167.454 1207.08 160.539 1200.24 160.539V180.284C1204.28 180.284 1204.77 182.177 1208.33 181.44C1213.92 180.284 1214.55 175.102 1213.05 172.097C1212.32 170.634 1209.77 168.79 1209.1 168.533Z" fill="#C62828" fill-opacity="0.15"/>
<ellipse cx="1186.15" cy="161.467" rx="3.80445" ry="5.62806" transform="rotate(-21.1898 1186.15 161.467)" fill="#C62828" fill-opacity="0.15"/>
<ellipse rx="3.80445" ry="5.62806" transform="matrix(-0.932388 -0.361459 -0.361459 0.932388 1214.03 161.467)" fill="#C62828" fill-opacity="0.15"/>
<ellipse cx="1194.42" cy="153.268" rx="4.19905" ry="6.21181" transform="rotate(-10.8834 1194.42 153.268)" fill="#C62828" fill-opacity="0.15"/>
<ellipse rx="4.19905" ry="6.21181" transform="matrix(-0.982013 -0.188811 -0.188811 0.982013 1205.75 153.268)" fill="#C62828" fill-opacity="0.15"/>
<path d="M1372.29 79.3385C1375.77 79.1672 1376.34 72.1553 1382.94 73.9505L1377.76 93.0035C1373.85 91.9414 1372.89 93.6418 1369.65 91.995C1364.56 89.413 1365.3 84.2459 1367.54 81.741C1368.63 80.5209 1371.57 79.4093 1372.29 79.3385Z" fill="#C62828" fill-opacity="0.15"/>
<path d="M1389.39 83.9906C1386.48 82.0796 1389.54 75.7461 1382.94 73.9509L1377.76 93.0039C1381.66 94.066 1381.63 96.0189 1385.26 96.243C1390.96 96.5943 1392.93 91.7605 1392.27 88.4662C1391.94 86.8617 1389.98 84.4156 1389.39 83.9906Z" fill="#C62828" fill-opacity="0.15"/>
<ellipse cx="1369.1" cy="71.1479" rx="3.80445" ry="5.62806" transform="rotate(-5.97278 1369.1 71.1479)" fill="#C62828" fill-opacity="0.15"/>
<ellipse rx="3.80445" ry="5.62806" transform="matrix(-0.804822 -0.593516 -0.593516 0.804822 1396 78.4649)" fill="#C62828" fill-opacity="0.15"/>
<ellipse cx="1379.23" cy="65.4078" rx="4.19905" ry="6.21181" transform="rotate(4.33364 1379.23 65.4078)" fill="#C62828" fill-opacity="0.15"/>
<ellipse rx="4.19905" ry="6.21181" transform="matrix(-0.898024 -0.439947 -0.439947 0.898024 1390.17 68.3824)" fill="#C62828" fill-opacity="0.15"/>
<path d="M1232.93 511.756C1235.55 509.451 1231.62 503.615 1237.9 500.904L1245.73 519.031C1242.01 520.635 1242.32 522.564 1238.76 523.3C1233.17 524.454 1230.53 519.948 1230.72 516.593C1230.81 514.959 1232.41 512.259 1232.93 511.756Z" fill="#C62828" fill-opacity="0.15"/>
<path d="M1249.2 504.729C1245.73 505.052 1244.18 498.191 1237.9 500.903L1245.73 519.03C1249.44 517.426 1250.63 518.973 1253.61 516.884C1258.29 513.607 1256.81 508.598 1254.24 506.436C1252.99 505.382 1249.92 504.698 1249.2 504.729Z" fill="#C62828" fill-opacity="0.15"/>
<ellipse cx="1225.33" cy="507.34" rx="3.80445" ry="5.62806" transform="rotate(-44.5452 1225.33 507.34)" fill="#C62828" fill-opacity="0.15"/>
<ellipse rx="3.80445" ry="5.62806" transform="matrix(-0.999286 0.0377861 0.0377861 0.999286 1250.92 496.289)" fill="#C62828" fill-opacity="0.15"/>
<ellipse cx="1229.68" cy="496.534" rx="4.19905" ry="6.21181" transform="rotate(-34.2388 1229.68 496.534)" fill="#C62828" fill-opacity="0.15"/>
<ellipse rx="4.19905" ry="6.21181" transform="matrix(-0.976402 0.215961 0.215961 0.976402 1240.08 492.041)" fill="#C62828" fill-opacity="0.15"/>
<path d="M1345.93 681.909C1349.34 682.594 1351.61 675.934 1357.57 679.289L1347.88 696.496C1344.36 694.511 1343.01 695.925 1340.27 693.534C1335.96 689.786 1337.95 684.959 1340.74 683.078C1342.09 682.161 1345.21 681.802 1345.93 681.909Z" fill="#C62828" fill-opacity="0.08"/>
<path d="M1361.37 690.603C1359.01 688.037 1363.53 682.645 1357.57 679.29L1347.88 696.496C1351.41 698.481 1350.9 700.367 1354.37 701.472C1359.8 703.206 1362.9 699.002 1363.06 695.646C1363.14 694.011 1361.83 691.157 1361.37 690.603Z" fill="#C62828" fill-opacity="0.08"/>
<ellipse cx="1344.84" cy="673.188" rx="3.80445" ry="5.62806" transform="rotate(8.18572 1344.84 673.188)" fill="#C62828" fill-opacity="0.08"/>
<ellipse rx="3.80445" ry="5.62806" transform="matrix(-0.635197 -0.77235 -0.77235 0.635197 1369.13 686.862)" fill="#C62828" fill-opacity="0.08"/>
<ellipse cx="1356.07" cy="670.1" rx="4.19905" ry="6.21181" transform="rotate(18.4921 1356.07 670.1)" fill="#C62828" fill-opacity="0.08"/>
<ellipse rx="4.19905" ry="6.21181" transform="matrix(-0.763131 -0.646244 -0.646244 0.763131 1365.95 675.66)" fill="#C62828" fill-opacity="0.08"/>
<path d="M19.9812 641.967C23.2954 640.888 22.003 633.973 28.8426 633.973V653.718C24.796 653.718 24.315 655.611 20.7511 654.874C15.1634 653.718 14.5286 648.536 16.0322 645.531C16.7645 644.067 19.3067 642.224 19.9812 641.967Z" fill="#C62828" fill-opacity="0.15"/>
<path d="M37.7043 641.967C34.3902 640.888 35.6825 633.973 28.843 633.973V653.718C32.8895 653.718 33.3705 655.611 36.9344 654.874C42.5221 653.718 43.157 648.536 41.6534 645.531C40.9211 644.067 38.3789 642.224 37.7043 641.967Z" fill="#C62828" fill-opacity="0.15"/>
<ellipse cx="14.7534" cy="634.901" rx="3.80445" ry="5.62806" transform="rotate(-21.1898 14.7534 634.901)" fill="#C62828" fill-opacity="0.15"/>
<ellipse rx="3.80445" ry="5.62806" transform="matrix(-0.932388 -0.361459 -0.361459 0.932388 42.6314 634.901)" fill="#C62828" fill-opacity="0.15"/>
<ellipse cx="23.0249" cy="626.702" rx="4.19905" ry="6.21181" transform="rotate(-10.8834 23.0249 626.702)" fill="#C62828" fill-opacity="0.15"/>
<ellipse rx="4.19905" ry="6.21181" transform="matrix(-0.982013 -0.188811 -0.188811 0.982013 34.3599 626.702)" fill="#C62828" fill-opacity="0.15"/>
<path d="M1345.79 774.115C1347.84 771.293 1342.72 766.461 1348.25 762.438L1359.87 778.404C1356.6 780.785 1357.32 782.599 1354.01 784.099C1348.81 786.452 1345.25 782.635 1344.69 779.32C1344.43 777.706 1345.4 774.72 1345.79 774.115Z" fill="#C62828" fill-opacity="0.08"/>
<path d="M1360.12 763.689C1356.81 764.766 1353.78 758.414 1348.25 762.437L1359.87 778.404C1363.14 776.024 1364.64 777.272 1367.09 774.579C1370.93 770.357 1368.39 765.793 1365.41 764.248C1363.96 763.495 1360.82 763.5 1360.12 763.689Z" fill="#C62828" fill-opacity="0.08"/>
<ellipse cx="1337.4" cy="771.477" rx="3.80445" ry="5.62806" transform="rotate(-57.2261 1337.4 771.477)" fill="#C62828" fill-opacity="0.08"/>
<ellipse rx="3.80445" ry="5.62806" transform="matrix(-0.966616 0.256228 0.256228 0.966616 1359.95 755.076)" fill="#C62828" fill-opacity="0.08"/>
<ellipse cx="1339.27" cy="759.981" rx="4.19905" ry="6.21181" transform="rotate(-46.9196 1339.27 759.981)" fill="#C62828" fill-opacity="0.08"/>
<ellipse rx="4.19905" ry="6.21181" transform="matrix(-0.905178 0.425034 0.425034 0.905178 1348.44 753.313)" fill="#C62828" fill-opacity="0.08"/>
<path d="M1044.63 750.446C1047.95 749.367 1046.66 742.452 1053.49 742.452V762.197C1049.45 762.197 1048.97 764.09 1045.4 763.353C1039.82 762.197 1039.18 757.015 1040.68 754.01C1041.42 752.547 1043.96 750.703 1044.63 750.446Z" fill="#C62828" fill-opacity="0.15"/>
<path d="M1062.36 750.446C1059.04 749.367 1060.33 742.452 1053.5 742.452V762.197C1057.54 762.197 1058.02 764.09 1061.59 763.353C1067.17 762.197 1067.81 757.015 1066.31 754.01C1065.57 752.547 1063.03 750.703 1062.36 750.446Z" fill="#C62828" fill-opacity="0.15"/>
<ellipse cx="1039.41" cy="743.38" rx="3.80445" ry="5.62806" transform="rotate(-21.1898 1039.41 743.38)" fill="#C62828" fill-opacity="0.15"/>
<ellipse rx="3.80445" ry="5.62806" transform="matrix(-0.932388 -0.361459 -0.361459 0.932388 1067.28 743.38)" fill="#C62828" fill-opacity="0.15"/>
<ellipse cx="1047.68" cy="735.181" rx="4.19905" ry="6.21181" transform="rotate(-10.8834 1047.68 735.181)" fill="#C62828" fill-opacity="0.15"/>
<ellipse rx="4.19905" ry="6.21181" transform="matrix(-0.982013 -0.188811 -0.188811 0.982013 1059.01 735.181)" fill="#C62828" fill-opacity="0.15"/>
<path d="M387.971 748.41C391.286 747.331 389.993 740.416 396.833 740.416V760.161C392.786 760.161 392.305 762.054 388.741 761.317C383.154 760.161 382.519 754.979 384.022 751.974C384.755 750.511 387.297 748.667 387.971 748.41Z" fill="#C62828" fill-opacity="0.08"/>
<path d="M405.695 748.41C402.38 747.331 403.673 740.416 396.833 740.416V760.161C400.88 760.161 401.361 762.054 404.925 761.317C410.512 760.161 411.147 754.979 409.644 751.974C408.911 750.511 406.369 748.667 405.695 748.41Z" fill="#C62828" fill-opacity="0.08"/>
<ellipse cx="382.744" cy="741.344" rx="3.80445" ry="5.62806" transform="rotate(-21.1898 382.744 741.344)" fill="#C62828" fill-opacity="0.08"/>
<ellipse rx="3.80445" ry="5.62806" transform="matrix(-0.932388 -0.361459 -0.361459 0.932388 410.622 741.344)" fill="#C62828" fill-opacity="0.08"/>
<ellipse cx="391.015" cy="733.145" rx="4.19905" ry="6.21181" transform="rotate(-10.8834 391.015 733.145)" fill="#C62828" fill-opacity="0.08"/>
<ellipse rx="4.19905" ry="6.21181" transform="matrix(-0.982013 -0.188811 -0.188811 0.982013 402.35 733.145)" fill="#C62828" fill-opacity="0.08"/>
<path d="M468.648 628.095C470.478 625.129 465.019 620.69 470.236 616.267L483.007 631.326C479.92 633.943 480.778 635.698 477.583 637.441C472.574 640.173 468.738 636.632 467.941 633.367C467.553 631.777 468.3 628.727 468.648 628.095Z" fill="#C62828" fill-opacity="0.08"/>
<path d="M482.166 616.632C478.94 617.953 475.453 611.843 470.237 616.267L483.008 631.326C486.094 628.709 487.685 629.841 489.926 626.974C493.44 622.479 490.573 618.116 487.483 616.796C485.977 616.154 482.846 616.392 482.166 616.632Z" fill="#C62828" fill-opacity="0.08"/>
<ellipse cx="460.09" cy="626.087" rx="3.80445" ry="5.62806" transform="rotate(-61.4886 460.09 626.087)" fill="#C62828" fill-opacity="0.08"/>
<ellipse rx="3.80445" ry="5.62806" transform="matrix(-0.944898 0.327366 0.327366 0.944898 481.353 608.057)" fill="#C62828" fill-opacity="0.08"/>
<ellipse cx="461.095" cy="614.484" rx="4.19905" ry="6.21181" transform="rotate(-51.1822 461.095 614.484)" fill="#C62828" fill-opacity="0.08"/>
<ellipse rx="4.19905" ry="6.21181" transform="matrix(-0.871082 0.491137 0.491137 0.871082 469.741 607.153)" fill="#C62828" fill-opacity="0.08"/>
<path d="M830.114 620.273C833.552 619.699 833.304 612.669 840.067 613.687L837.128 633.212C833.126 632.61 832.369 634.41 828.954 633.151C823.601 631.176 823.745 625.957 825.679 623.209C826.621 621.871 829.409 620.427 830.114 620.273Z" fill="#C62828" fill-opacity="0.08"/>
<path d="M847.64 622.911C844.524 621.351 846.831 614.705 840.068 613.687L837.128 633.212C841.13 633.815 841.324 635.758 844.958 635.56C850.655 635.249 852.054 630.219 851.015 627.023C850.509 625.467 848.269 623.266 847.64 622.911Z" fill="#C62828" fill-opacity="0.08"/>
<ellipse cx="825.998" cy="612.508" rx="3.80445" ry="5.62806" transform="rotate(-12.6288 825.998 612.508)" fill="#C62828" fill-opacity="0.08"/>
<ellipse rx="3.80445" ry="5.62806" transform="matrix(-0.868191 -0.49623 -0.49623 0.868191 853.564 616.658)" fill="#C62828" fill-opacity="0.08"/>
<ellipse cx="835.397" cy="605.631" rx="4.19905" ry="6.21181" transform="rotate(-2.32238 835.397 605.631)" fill="#C62828" fill-opacity="0.08"/>
<ellipse rx="4.19905" ry="6.21181" transform="matrix(-0.942965 -0.332893 -0.332893 0.942965 846.605 607.319)" fill="#C62828" fill-opacity="0.08"/>
<path d="M1181.02 645.743C1184.46 645.169 1184.21 638.139 1190.98 639.157L1188.04 658.682C1184.03 658.08 1183.28 659.88 1179.86 658.62C1174.51 656.646 1174.65 651.427 1176.59 648.679C1177.53 647.341 1180.32 645.896 1181.02 645.743Z" fill="#C62828" fill-opacity="0.08"/>
<path d="M1198.55 648.381C1195.43 646.821 1197.74 640.175 1190.98 639.157L1188.04 658.682C1192.04 659.284 1192.23 661.228 1195.87 661.03C1201.56 660.718 1202.96 655.688 1201.92 652.493C1201.42 650.937 1199.18 648.735 1198.55 648.381Z" fill="#C62828" fill-opacity="0.08"/>
<ellipse cx="1176.91" cy="637.977" rx="3.80445" ry="5.62806" transform="rotate(-12.6288 1176.91 637.977)" fill="#C62828" fill-opacity="0.08"/>
<ellipse rx="3.80445" ry="5.62806" transform="matrix(-0.868191 -0.49623 -0.49623 0.868191 1204.47 642.127)" fill="#C62828" fill-opacity="0.08"/>
<ellipse cx="1186.3" cy="631.101" rx="4.19905" ry="6.21181" transform="rotate(-2.32238 1186.3 631.101)" fill="#C62828" fill-opacity="0.08"/>
<ellipse rx="4.19905" ry="6.21181" transform="matrix(-0.942965 -0.332893 -0.332893 0.942965 1197.51 632.789)" fill="#C62828" fill-opacity="0.08"/>
<ellipse cx="1379.23" cy="790.71" rx="4.19905" ry="6.21181" transform="rotate(4.33364 1379.23 790.71)" fill="#C62828" fill-opacity="0.15"/>
<ellipse rx="4.19905" ry="6.21181" transform="matrix(-0.898024 -0.439947 -0.439947 0.898024 1390.17 793.684)" fill="#C62828" fill-opacity="0.15"/>
</svg>
