<svg width="1400" height="708" viewBox="0 0 1400 708" fill="none" xmlns="http://www.w3.org/2000/svg">
<path d="M54.7019 105.808C58.0161 104.729 56.7237 97.8135 63.5633 97.8135V117.559C59.5167 117.559 59.0357 119.452 55.4718 118.715C49.8841 117.559 49.2493 112.377 50.7529 109.372C51.4852 107.908 54.0274 106.065 54.7019 105.808Z" fill="#827717" fill-opacity="0.08"/>
<path d="M72.425 105.808C69.1109 104.729 70.4032 97.8135 63.5637 97.8135V117.559C67.6102 117.559 68.0912 119.452 71.6551 118.715C77.2428 117.559 77.8777 112.377 76.3741 109.372C75.6418 107.908 73.0996 106.065 72.425 105.808Z" fill="#827717" fill-opacity="0.08"/>
<ellipse cx="49.4741" cy="98.7415" rx="3.80445" ry="5.62806" transform="rotate(-21.1898 49.4741 98.7415)" fill="#827717" fill-opacity="0.08"/>
<ellipse rx="3.80445" ry="5.62806" transform="matrix(-0.932388 -0.361459 -0.361459 0.932388 77.3521 98.7415)" fill="#827717" fill-opacity="0.08"/>
<ellipse cx="57.7456" cy="90.5426" rx="4.19905" ry="6.21181" transform="rotate(-10.8834 57.7456 90.5426)" fill="#827717" fill-opacity="0.08"/>
<ellipse rx="4.19905" ry="6.21181" transform="matrix(-0.982013 -0.188811 -0.188811 0.982013 69.0806 90.5426)" fill="#827717" fill-opacity="0.08"/>
<path d="M95.4192 129.824C98.9042 129.872 99.9119 122.91 106.386 125.117L100.016 143.806C96.1855 142.501 95.1195 144.137 91.984 142.29C87.0679 139.393 88.1389 134.283 90.5315 131.924C91.6968 130.775 94.6979 129.85 95.4192 129.824Z" fill="#BF360C" fill-opacity="0.08"/>
<path d="M112.194 135.542C109.405 133.452 112.86 127.323 106.386 125.117L100.016 143.806C103.846 145.112 103.69 147.059 107.301 147.511C112.963 148.219 115.236 143.519 114.782 140.19C114.561 138.568 112.75 136.003 112.194 135.542Z" fill="#BF360C" fill-opacity="0.08"/>
<ellipse cx="92.7506" cy="121.449" rx="3.80445" ry="5.62806" transform="rotate(-2.36866 92.7506 121.449)" fill="#BF360C" fill-opacity="0.08"/>
<ellipse rx="3.80445" ry="5.62806" transform="matrix(-0.765921 -0.642935 -0.642935 0.765921 119.138 130.444)" fill="#BF360C" fill-opacity="0.08"/>
<ellipse cx="103.225" cy="116.358" rx="4.19905" ry="6.21181" transform="rotate(7.93776 103.225 116.358)" fill="#BF360C" fill-opacity="0.08"/>
<ellipse rx="4.19905" ry="6.21181" transform="matrix(-0.868592 -0.495528 -0.495528 0.868592 113.954 120.015)" fill="#BF360C" fill-opacity="0.08"/>
<path d="M380.529 518.423C382.46 515.521 377.156 510.899 382.521 506.656L394.769 522.143C391.596 524.653 392.393 526.436 389.14 528.069C384.04 530.629 380.328 526.958 379.643 523.668C379.309 522.066 380.16 519.043 380.529 518.423Z" fill="#BF360C" fill-opacity="0.08"/>
<path d="M394.432 507.429C391.163 508.638 387.887 502.413 382.522 506.655L394.771 522.142C397.945 519.632 399.497 520.819 401.834 518.03C405.5 513.657 402.783 509.198 399.74 507.774C398.258 507.081 395.12 507.212 394.432 507.429Z" fill="#BF360C" fill-opacity="0.08"/>
<ellipse cx="372.046" cy="516.124" rx="3.80445" ry="5.62806" transform="rotate(-59.5306 372.046 516.124)" fill="#BF360C" fill-opacity="0.08"/>
<ellipse rx="3.80445" ry="5.62806" transform="matrix(-0.955531 0.294889 0.294889 0.955531 393.913 498.83)" fill="#BF360C" fill-opacity="0.08"/>
<ellipse cx="373.448" cy="504.562" rx="4.19905" ry="6.21181" transform="rotate(-49.2241 373.448 504.562)" fill="#BF360C" fill-opacity="0.08"/>
<ellipse rx="4.19905" ry="6.21181" transform="matrix(-0.887355 0.461087 0.461087 0.887355 382.339 497.53)" fill="#BF360C" fill-opacity="0.08"/>
<path d="M162.531 291.981C165.541 290.225 162.812 283.74 169.497 282.291L173.682 301.587C169.727 302.445 169.658 304.397 166.019 304.432C160.313 304.487 158.595 299.557 159.427 296.301C159.832 294.716 161.926 292.375 162.531 291.981Z" fill="#827717" fill-opacity="0.08"/>
<path d="M179.852 288.225C176.384 287.873 176.182 280.841 169.498 282.29L173.683 301.587C177.637 300.729 178.509 302.477 181.835 301.002C187.051 298.688 186.573 293.489 184.467 290.871C183.441 289.596 180.566 288.333 179.852 288.225Z" fill="#827717" fill-opacity="0.08"/>
<ellipse cx="155.926" cy="286.184" rx="3.80445" ry="5.62806" transform="rotate(-33.4269 155.926 286.184)" fill="#827717" fill-opacity="0.08"/>
<ellipse rx="3.80445" ry="5.62806" transform="matrix(-0.987817 -0.155621 -0.155621 0.987817 183.169 280.275)" fill="#827717" fill-opacity="0.08"/>
<ellipse cx="162.272" cy="276.419" rx="4.19905" ry="6.21181" transform="rotate(-23.1205 162.272 276.419)" fill="#827717" fill-opacity="0.08"/>
<ellipse rx="4.19905" ry="6.21181" transform="matrix(-0.999721 0.0236229 0.0236229 0.999721 173.347 274.015)" fill="#827717" fill-opacity="0.08"/>
<path d="M914.766 168.5C918.081 167.421 916.788 160.506 923.628 160.506V180.251C919.581 180.251 919.1 182.144 915.536 181.407C909.949 180.251 909.314 175.069 910.817 172.064C911.55 170.6 914.092 168.757 914.766 168.5Z" fill="#BF360C" fill-opacity="0.08"/>
<path d="M932.489 168.5C929.175 167.421 930.468 160.506 923.628 160.506V180.251C927.675 180.251 928.156 182.144 931.72 181.407C937.307 180.251 937.942 175.069 936.439 172.064C935.706 170.6 933.164 168.757 932.489 168.5Z" fill="#BF360C" fill-opacity="0.08"/>
<ellipse cx="909.539" cy="161.434" rx="3.80445" ry="5.62806" transform="rotate(-21.1898 909.539 161.434)" fill="#BF360C" fill-opacity="0.08"/>
<ellipse rx="3.80445" ry="5.62806" transform="matrix(-0.932388 -0.361459 -0.361459 0.932388 937.417 161.434)" fill="#BF360C" fill-opacity="0.08"/>
<ellipse cx="917.81" cy="153.235" rx="4.19905" ry="6.21181" transform="rotate(-10.8834 917.81 153.235)" fill="#BF360C" fill-opacity="0.08"/>
<ellipse rx="4.19905" ry="6.21181" transform="matrix(-0.982013 -0.188811 -0.188811 0.982013 929.145 153.235)" fill="#BF360C" fill-opacity="0.08"/>
<path d="M499.944 322.034C503.258 320.955 501.966 314.04 508.805 314.04V333.785C504.759 333.785 504.278 335.678 500.714 334.941C495.126 333.785 494.491 328.603 495.995 325.598C496.727 324.135 499.27 322.291 499.944 322.034Z" fill="#BF360C" fill-opacity="0.08"/>
<path d="M517.667 322.034C514.353 320.955 515.645 314.04 508.806 314.04V333.785C512.852 333.785 513.333 335.678 516.897 334.941C522.485 333.785 523.12 328.603 521.616 325.598C520.884 324.135 518.342 322.291 517.667 322.034Z" fill="#BF360C" fill-opacity="0.08"/>
<ellipse cx="494.716" cy="314.968" rx="3.80445" ry="5.62806" transform="rotate(-21.1898 494.716 314.968)" fill="#BF360C" fill-opacity="0.08"/>
<ellipse rx="3.80445" ry="5.62806" transform="matrix(-0.932388 -0.361459 -0.361459 0.932388 522.594 314.968)" fill="#BF360C" fill-opacity="0.08"/>
<ellipse cx="502.988" cy="306.769" rx="4.19905" ry="6.21181" transform="rotate(-10.8834 502.988 306.769)" fill="#BF360C" fill-opacity="0.08"/>
<ellipse rx="4.19905" ry="6.21181" transform="matrix(-0.982013 -0.188811 -0.188811 0.982013 514.323 306.769)" fill="#BF360C" fill-opacity="0.08"/>
<path d="M672.995 95.2725C676.309 94.1935 675.017 87.2783 681.856 87.2783V107.024C677.81 107.024 677.329 108.917 673.765 108.179C668.177 107.024 667.542 101.841 669.046 98.8365C669.778 97.3729 672.32 95.5294 672.995 95.2725Z" fill="#827717" fill-opacity="0.08"/>
<path d="M690.718 95.2725C687.404 94.1935 688.696 87.2783 681.857 87.2783V107.024C685.903 107.024 686.384 108.917 689.948 108.179C695.536 107.024 696.171 101.841 694.667 98.8365C693.935 97.3729 691.393 95.5294 690.718 95.2725Z" fill="#827717" fill-opacity="0.08"/>
<ellipse cx="667.767" cy="88.2064" rx="3.80445" ry="5.62806" transform="rotate(-21.1898 667.767 88.2064)" fill="#827717" fill-opacity="0.08"/>
<ellipse rx="3.80445" ry="5.62806" transform="matrix(-0.932388 -0.361459 -0.361459 0.932388 695.645 88.2064)" fill="#827717" fill-opacity="0.08"/>
<ellipse cx="676.039" cy="80.0074" rx="4.19905" ry="6.21181" transform="rotate(-10.8834 676.039 80.0074)" fill="#827717" fill-opacity="0.08"/>
<ellipse rx="4.19905" ry="6.21181" transform="matrix(-0.982013 -0.188811 -0.188811 0.982013 687.374 80.0074)" fill="#827717" fill-opacity="0.08"/>
<path d="M567.119 676.569C570.583 676.954 572.261 670.123 578.491 672.947L570.338 690.93C566.653 689.259 565.433 690.785 562.491 688.642C557.879 685.282 559.441 680.3 562.051 678.184C563.322 677.154 566.399 676.524 567.119 676.569Z" fill="#BF360C" fill-opacity="0.08"/>
<path d="M583.262 683.887C580.689 681.536 584.721 675.771 578.492 672.947L570.339 690.931C574.025 692.601 573.681 694.524 577.231 695.324C582.798 696.579 585.516 692.121 585.387 688.763C585.324 687.128 583.77 684.399 583.262 683.887Z" fill="#BF360C" fill-opacity="0.08"/>
<ellipse cx="565.276" cy="667.975" rx="3.80445" ry="5.62806" transform="rotate(3.19663 565.276 667.975)" fill="#BF360C" fill-opacity="0.08"/>
<ellipse rx="3.80445" ry="5.62806" transform="matrix(-0.699959 -0.714183 -0.714183 0.699959 590.667 679.485)" fill="#BF360C" fill-opacity="0.08"/>
<ellipse cx="576.195" cy="663.923" rx="4.19905" ry="6.21181" transform="rotate(13.503 576.195 663.923)" fill="#BF360C" fill-opacity="0.08"/>
<ellipse rx="4.19905" ry="6.21181" transform="matrix(-0.816441 -0.577429 -0.577429 0.816441 586.518 668.603)" fill="#BF360C" fill-opacity="0.08"/>
<path d="M982.655 682.637C985.969 681.558 984.677 674.643 991.516 674.643V694.388C987.47 694.388 986.989 696.281 983.425 695.544C977.837 694.388 977.202 689.206 978.706 686.201C979.438 684.737 981.981 682.894 982.655 682.637Z" fill="#827717" fill-opacity="0.08"/>
<path d="M1000.38 682.637C997.064 681.558 998.356 674.643 991.517 674.643V694.388C995.563 694.388 996.044 696.281 999.608 695.544C1005.2 694.388 1005.83 689.206 1004.33 686.201C1003.59 684.737 1001.05 682.894 1000.38 682.637Z" fill="#827717" fill-opacity="0.08"/>
<ellipse cx="977.427" cy="675.571" rx="3.80445" ry="5.62806" transform="rotate(-21.1898 977.427 675.571)" fill="#827717" fill-opacity="0.08"/>
<ellipse rx="3.80445" ry="5.62806" transform="matrix(-0.932388 -0.361459 -0.361459 0.932388 1005.31 675.571)" fill="#827717" fill-opacity="0.08"/>
<ellipse cx="985.699" cy="667.372" rx="4.19905" ry="6.21181" transform="rotate(-10.8834 985.699 667.372)" fill="#827717" fill-opacity="0.08"/>
<ellipse rx="4.19905" ry="6.21181" transform="matrix(-0.982013 -0.188811 -0.188811 0.982013 997.034 667.372)" fill="#827717" fill-opacity="0.08"/>
<path d="M1261.35 311.31C1264.66 310.231 1263.37 303.315 1270.21 303.315V323.061C1266.16 323.061 1265.68 324.954 1262.12 324.217C1256.53 323.061 1255.9 317.879 1257.4 314.874C1258.13 313.41 1260.67 311.566 1261.35 311.31Z" fill="#827717" fill-opacity="0.08"/>
<path d="M1279.07 311.31C1275.76 310.231 1277.05 303.315 1270.21 303.315V323.061C1274.26 323.061 1274.74 324.954 1278.3 324.217C1283.89 323.061 1284.52 317.879 1283.02 314.874C1282.29 313.41 1279.75 311.566 1279.07 311.31Z" fill="#827717" fill-opacity="0.08"/>
<ellipse cx="1256.12" cy="304.243" rx="3.80445" ry="5.62806" transform="rotate(-21.1898 1256.12 304.243)" fill="#827717" fill-opacity="0.08"/>
<ellipse rx="3.80445" ry="5.62806" transform="matrix(-0.932388 -0.361459 -0.361459 0.932388 1284 304.243)" fill="#827717" fill-opacity="0.08"/>
<ellipse cx="1264.39" cy="296.045" rx="4.19905" ry="6.21181" transform="rotate(-10.8834 1264.39 296.045)" fill="#827717" fill-opacity="0.08"/>
<ellipse rx="4.19905" ry="6.21181" transform="matrix(-0.982013 -0.188811 -0.188811 0.982013 1275.73 296.045)" fill="#827717" fill-opacity="0.08"/>
<path d="M1322.86 48.7811C1324.9 45.9589 1319.79 41.1272 1325.32 37.1036L1336.93 53.0705C1333.66 55.4511 1334.39 57.2648 1331.07 58.7653C1325.87 61.1179 1322.31 57.3008 1321.76 53.9863C1321.49 52.372 1322.46 49.3857 1322.86 48.7811Z" fill="#BF360C" fill-opacity="0.08"/>
<path d="M1337.19 38.3548C1333.87 39.432 1330.85 33.0798 1325.32 37.1035L1336.93 53.0704C1340.21 50.6898 1341.71 51.9377 1344.16 49.2449C1347.99 45.023 1345.46 40.459 1342.48 38.9136C1341.02 38.1609 1337.88 38.1657 1337.19 38.3548Z" fill="#BF360C" fill-opacity="0.08"/>
<ellipse cx="1314.47" cy="46.1427" rx="3.80445" ry="5.62806" transform="rotate(-57.2261 1314.47 46.1427)" fill="#BF360C" fill-opacity="0.08"/>
<ellipse rx="3.80445" ry="5.62806" transform="matrix(-0.966616 0.256228 0.256228 0.966616 1337.01 29.7421)" fill="#BF360C" fill-opacity="0.08"/>
<ellipse cx="1316.33" cy="34.6465" rx="4.19905" ry="6.21181" transform="rotate(-46.9196 1316.33 34.6465)" fill="#BF360C" fill-opacity="0.08"/>
<ellipse rx="4.19905" ry="6.21181" transform="matrix(-0.905178 0.425034 0.425034 0.905178 1325.5 27.9788)" fill="#BF360C" fill-opacity="0.08"/>
<path d="M1021.7 25.1123C1025.01 24.0334 1023.72 17.1182 1030.56 17.1182V36.8635C1026.51 36.8635 1026.03 38.7565 1022.47 38.0193C1016.88 36.8635 1016.25 31.6813 1017.75 28.6763C1018.48 27.2127 1021.02 25.3692 1021.7 25.1123Z" fill="#827717" fill-opacity="0.08"/>
<path d="M1039.42 25.1123C1036.11 24.0334 1037.4 17.1182 1030.56 17.1182V36.8635C1034.61 36.8635 1035.09 38.7565 1038.65 38.0193C1044.24 36.8635 1044.87 31.6813 1043.37 28.6763C1042.64 27.2127 1040.1 25.3692 1039.42 25.1123Z" fill="#827717" fill-opacity="0.08"/>
<ellipse cx="1016.47" cy="18.0462" rx="3.80445" ry="5.62806" transform="rotate(-21.1898 1016.47 18.0462)" fill="#827717" fill-opacity="0.08"/>
<ellipse rx="3.80445" ry="5.62806" transform="matrix(-0.932388 -0.361459 -0.361459 0.932388 1044.35 18.0462)" fill="#827717" fill-opacity="0.08"/>
<ellipse cx="1024.74" cy="9.84729" rx="4.19905" ry="6.21181" transform="rotate(-10.8834 1024.74 9.84729)" fill="#827717" fill-opacity="0.08"/>
<ellipse rx="4.19905" ry="6.21181" transform="matrix(-0.982013 -0.188811 -0.188811 0.982013 1036.08 9.84729)" fill="#827717" fill-opacity="0.08"/>
<path d="M365.036 23.0762C368.35 21.9972 367.058 15.082 373.897 15.082V34.8273C369.851 34.8273 369.37 36.7204 365.806 35.9832C360.218 34.8273 359.583 29.6451 361.087 26.6402C361.819 25.1766 364.361 23.3331 365.036 23.0762Z" fill="#BF360C" fill-opacity="0.08"/>
<path d="M382.759 23.0762C379.445 21.9972 380.737 15.082 373.898 15.082V34.8273C377.944 34.8273 378.425 36.7204 381.989 35.9832C387.577 34.8273 388.212 29.6451 386.708 26.6402C385.976 25.1766 383.434 23.3331 382.759 23.0762Z" fill="#BF360C" fill-opacity="0.08"/>
<ellipse cx="359.808" cy="16.0101" rx="3.80445" ry="5.62806" transform="rotate(-21.1898 359.808 16.0101)" fill="#BF360C" fill-opacity="0.08"/>
<ellipse rx="3.80445" ry="5.62806" transform="matrix(-0.932388 -0.361459 -0.361459 0.932388 387.686 16.0101)" fill="#BF360C" fill-opacity="0.08"/>
<ellipse cx="368.08" cy="7.81116" rx="4.19905" ry="6.21181" transform="rotate(-10.8834 368.08 7.81116)" fill="#BF360C" fill-opacity="0.08"/>
<ellipse rx="4.19905" ry="6.21181" transform="matrix(-0.982013 -0.188811 -0.188811 0.982013 379.415 7.81116)" fill="#BF360C" fill-opacity="0.08"/>
<path d="M337.157 228.329C340.471 227.25 339.179 220.335 346.018 220.335V240.08C341.972 240.08 341.491 241.973 337.927 241.236C332.339 240.08 331.704 234.898 333.208 231.893C333.94 230.43 336.482 228.586 337.157 228.329Z" fill="#827717" fill-opacity="0.08"/>
<path d="M354.88 228.329C351.566 227.25 352.858 220.335 346.019 220.335V240.08C350.065 240.08 350.546 241.973 354.11 241.236C359.698 240.08 360.333 234.898 358.829 231.893C358.097 230.43 355.555 228.586 354.88 228.329Z" fill="#827717" fill-opacity="0.08"/>
<ellipse cx="331.929" cy="221.263" rx="3.80445" ry="5.62806" transform="rotate(-21.1898 331.929 221.263)" fill="#827717" fill-opacity="0.08"/>
<ellipse rx="3.80445" ry="5.62806" transform="matrix(-0.932388 -0.361459 -0.361459 0.932388 359.807 221.263)" fill="#827717" fill-opacity="0.08"/>
<ellipse cx="340.201" cy="213.064" rx="4.19905" ry="6.21181" transform="rotate(-10.8834 340.201 213.064)" fill="#827717" fill-opacity="0.08"/>
<ellipse rx="4.19905" ry="6.21181" transform="matrix(-0.982013 -0.188811 -0.188811 0.982013 351.536 213.064)" fill="#827717" fill-opacity="0.08"/>
<path d="M68.2631 471.341C70.0929 468.375 64.6347 463.936 69.8511 459.513L82.6218 474.572C79.5356 477.189 80.3931 478.944 77.1982 480.687C72.189 483.419 68.3531 479.878 67.5564 476.613C67.1683 475.023 67.9148 471.973 68.2631 471.341Z" fill="#BF360C" fill-opacity="0.08"/>
<path d="M81.7808 459.878C78.5553 461.199 75.0684 455.089 69.852 459.513L82.6227 474.572C85.709 471.955 87.3002 473.088 89.5415 470.22C93.0556 465.725 90.1881 461.362 87.0978 460.042C85.5926 459.4 82.4614 459.638 81.7808 459.878Z" fill="#BF360C" fill-opacity="0.08"/>
<ellipse cx="59.7048" cy="469.333" rx="3.80445" ry="5.62806" transform="rotate(-61.4886 59.7048 469.333)" fill="#BF360C" fill-opacity="0.08"/>
<ellipse rx="3.80445" ry="5.62806" transform="matrix(-0.944898 0.327366 0.327366 0.944898 80.9683 451.303)" fill="#BF360C" fill-opacity="0.08"/>
<ellipse cx="60.7103" cy="457.73" rx="4.19905" ry="6.21181" transform="rotate(-51.1822 60.7103 457.73)" fill="#BF360C" fill-opacity="0.08"/>
<ellipse rx="4.19905" ry="6.21181" transform="matrix(-0.871082 0.491137 0.491137 0.871082 69.356 450.399)" fill="#BF360C" fill-opacity="0.08"/>
<path d="M422.784 493.55C426.098 492.471 424.806 485.556 431.645 485.556V505.301C427.599 505.301 427.118 507.194 423.554 506.457C417.966 505.301 417.331 500.119 418.835 497.114C419.567 495.65 422.109 493.807 422.784 493.55Z" fill="#827717" fill-opacity="0.08"/>
<path d="M440.507 493.55C437.193 492.471 438.485 485.556 431.646 485.556V505.301C435.692 505.301 436.173 507.194 439.737 506.457C445.325 505.301 445.96 500.119 444.456 497.114C443.724 495.65 441.182 493.807 440.507 493.55Z" fill="#827717" fill-opacity="0.08"/>
<ellipse cx="417.556" cy="486.484" rx="3.80445" ry="5.62806" transform="rotate(-21.1898 417.556 486.484)" fill="#827717" fill-opacity="0.08"/>
<ellipse rx="3.80445" ry="5.62806" transform="matrix(-0.932388 -0.361459 -0.361459 0.932388 445.434 486.484)" fill="#827717" fill-opacity="0.08"/>
<ellipse cx="425.828" cy="478.285" rx="4.19905" ry="6.21181" transform="rotate(-10.8834 425.828 478.285)" fill="#827717" fill-opacity="0.08"/>
<ellipse rx="4.19905" ry="6.21181" transform="matrix(-0.982013 -0.188811 -0.188811 0.982013 437.163 478.285)" fill="#827717" fill-opacity="0.08"/>
<path d="M198.612 677.171C201.926 676.092 200.634 669.177 207.473 669.177V688.922C203.427 688.922 202.946 690.815 199.382 690.078C193.794 688.922 193.159 683.74 194.663 680.735C195.395 679.271 197.938 677.428 198.612 677.171Z" fill="#827717" fill-opacity="0.08"/>
<path d="M216.335 677.171C213.021 676.092 214.313 669.177 207.474 669.177V688.922C211.52 688.922 212.001 690.815 215.565 690.078C221.153 688.922 221.788 683.74 220.284 680.735C219.552 679.271 217.01 677.428 216.335 677.171Z" fill="#827717" fill-opacity="0.08"/>
<ellipse cx="193.384" cy="670.105" rx="3.80445" ry="5.62806" transform="rotate(-21.1898 193.384 670.105)" fill="#827717" fill-opacity="0.08"/>
<ellipse rx="3.80445" ry="5.62806" transform="matrix(-0.932388 -0.361459 -0.361459 0.932388 221.262 670.105)" fill="#827717" fill-opacity="0.08"/>
<ellipse cx="201.656" cy="661.906" rx="4.19905" ry="6.21181" transform="rotate(-10.8834 201.656 661.906)" fill="#827717" fill-opacity="0.08"/>
<ellipse rx="4.19905" ry="6.21181" transform="matrix(-0.982013 -0.188811 -0.188811 0.982013 212.991 661.906)" fill="#827717" fill-opacity="0.08"/>
<path d="M781.591 561.516C784.905 560.437 783.612 553.521 790.452 553.521V573.267C786.405 573.267 785.924 575.16 782.36 574.423C776.773 573.267 776.138 568.085 777.642 565.08C778.374 563.616 780.916 561.773 781.591 561.516Z" fill="#827717" fill-opacity="0.08"/>
<path d="M799.314 561.516C796 560.437 797.292 553.521 790.452 553.521V573.267C794.499 573.267 794.98 575.16 798.544 574.423C804.131 573.267 804.766 568.085 803.263 565.08C802.53 563.616 799.988 561.773 799.314 561.516Z" fill="#827717" fill-opacity="0.08"/>
<ellipse cx="776.363" cy="554.45" rx="3.80445" ry="5.62806" transform="rotate(-21.1898 776.363 554.45)" fill="#827717" fill-opacity="0.08"/>
<ellipse rx="3.80445" ry="5.62806" transform="matrix(-0.932388 -0.361459 -0.361459 0.932388 804.241 554.45)" fill="#827717" fill-opacity="0.08"/>
<ellipse cx="784.634" cy="546.251" rx="4.19905" ry="6.21181" transform="rotate(-10.8834 784.634 546.251)" fill="#827717" fill-opacity="0.08"/>
<ellipse rx="4.19905" ry="6.21181" transform="matrix(-0.982013 -0.188811 -0.188811 0.982013 795.969 546.251)" fill="#827717" fill-opacity="0.08"/>
<path d="M752.899 323.955C756.38 323.784 756.949 316.772 763.548 318.568L758.364 337.62C754.459 336.558 753.498 338.258 750.253 336.611C745.165 334.029 745.913 328.862 748.152 326.357C749.243 325.137 752.18 324.026 752.899 323.955Z" fill="#827717" fill-opacity="0.08"/>
<path d="M770.001 328.608C767.086 326.697 770.149 320.364 763.549 318.568L758.365 337.62C762.269 338.683 762.237 340.636 765.869 340.86C771.564 341.212 773.537 336.378 772.876 333.084C772.553 331.479 770.584 329.033 770.001 328.608Z" fill="#827717" fill-opacity="0.08"/>
<ellipse cx="749.711" cy="315.765" rx="3.80445" ry="5.62806" transform="rotate(-5.96717 749.711 315.765)" fill="#827717" fill-opacity="0.08"/>
<ellipse rx="3.80445" ry="5.62806" transform="matrix(-0.804764 -0.593594 -0.593594 0.804764 776.609 323.084)" fill="#827717" fill-opacity="0.08"/>
<ellipse cx="759.844" cy="310.024" rx="4.19905" ry="6.21181" transform="rotate(4.33924 759.844 310.024)" fill="#827717" fill-opacity="0.08"/>
<ellipse rx="4.19905" ry="6.21181" transform="matrix(-0.897981 -0.440034 -0.440034 0.897981 770.781 313.001)" fill="#827717" fill-opacity="0.08"/>
<path d="M990.1 427.121C993.544 427.657 995.517 420.904 1001.62 423.995L992.694 441.609C989.084 439.78 987.799 441.251 984.953 438.982C980.492 435.426 982.267 430.516 984.967 428.515C986.282 427.541 989.383 427.045 990.1 427.121Z" fill="#BF360C" fill-opacity="0.08"/>
<path d="M1005.91 435.131C1003.44 432.671 1007.72 427.086 1001.62 423.995L992.694 441.608C996.303 443.437 995.877 445.343 999.389 446.297C1004.9 447.791 1007.8 443.455 1007.82 440.095C1007.83 438.459 1006.4 435.665 1005.91 435.131Z" fill="#BF360C" fill-opacity="0.08"/>
<ellipse cx="988.631" cy="418.455" rx="3.80445" ry="5.62806" transform="rotate(5.68107 988.631 418.455)" fill="#BF360C" fill-opacity="0.08"/>
<ellipse rx="3.80445" ry="5.62806" transform="matrix(-0.668342 -0.743854 -0.743854 0.668342 1013.5 431.056)" fill="#BF360C" fill-opacity="0.08"/>
<ellipse cx="999.714" cy="414.88" rx="4.19905" ry="6.21181" transform="rotate(15.9875 999.714 414.88)" fill="#BF360C" fill-opacity="0.08"/>
<ellipse rx="4.19905" ry="6.21181" transform="matrix(-0.790643 -0.612277 -0.612277 0.790643 1009.83 420.002)" fill="#BF360C" fill-opacity="0.08"/>
<path d="M1168.44 168.501C1171.75 167.422 1170.46 160.507 1177.3 160.507V180.252C1173.26 180.252 1172.77 182.145 1169.21 181.408C1163.62 180.252 1162.99 175.07 1164.49 172.065C1165.22 170.601 1167.77 168.758 1168.44 168.501Z" fill="#827717" fill-opacity="0.08"/>
<path d="M1186.16 168.501C1182.85 167.422 1184.14 160.507 1177.3 160.507V180.252C1181.35 180.252 1181.83 182.145 1185.39 181.408C1190.98 180.252 1191.62 175.07 1190.11 172.065C1189.38 170.601 1186.84 168.758 1186.16 168.501Z" fill="#827717" fill-opacity="0.08"/>
<ellipse cx="1163.21" cy="161.435" rx="3.80445" ry="5.62806" transform="rotate(-21.1898 1163.21 161.435)" fill="#827717" fill-opacity="0.08"/>
<ellipse rx="3.80445" ry="5.62806" transform="matrix(-0.932388 -0.361459 -0.361459 0.932388 1191.09 161.435)" fill="#827717" fill-opacity="0.08"/>
<ellipse cx="1171.48" cy="153.236" rx="4.19905" ry="6.21181" transform="rotate(-10.8834 1171.48 153.236)" fill="#827717" fill-opacity="0.08"/>
<ellipse rx="4.19905" ry="6.21181" transform="matrix(-0.982013 -0.188811 -0.188811 0.982013 1182.82 153.236)" fill="#827717" fill-opacity="0.08"/>
<path d="M1349.35 79.3062C1352.84 79.135 1353.4 72.123 1360 73.9183L1354.82 92.9713C1350.92 91.9091 1349.96 93.6095 1346.71 91.9627C1341.62 89.3808 1342.37 84.2137 1344.61 81.7087C1345.7 80.4887 1348.64 79.3771 1349.35 79.3062Z" fill="#827717" fill-opacity="0.08"/>
<path d="M1366.46 83.9584C1363.54 82.0474 1366.6 75.7139 1360 73.9186L1354.82 92.9716C1358.73 94.0338 1358.69 95.9867 1362.33 96.2108C1368.02 96.5621 1369.99 91.7282 1369.33 88.434C1369.01 86.8295 1367.04 84.3834 1366.46 83.9584Z" fill="#827717" fill-opacity="0.08"/>
<ellipse cx="1346.16" cy="71.1157" rx="3.80445" ry="5.62806" transform="rotate(-5.97278 1346.16 71.1157)" fill="#827717" fill-opacity="0.08"/>
<ellipse rx="3.80445" ry="5.62806" transform="matrix(-0.804822 -0.593516 -0.593516 0.804822 1373.06 78.4327)" fill="#827717" fill-opacity="0.08"/>
<ellipse cx="1356.3" cy="65.3756" rx="4.19905" ry="6.21181" transform="rotate(4.33364 1356.3 65.3756)" fill="#827717" fill-opacity="0.08"/>
<ellipse rx="4.19905" ry="6.21181" transform="matrix(-0.898024 -0.439947 -0.439947 0.898024 1367.24 68.3501)" fill="#827717" fill-opacity="0.08"/>
<path d="M1210 511.724C1212.61 509.419 1208.68 503.583 1214.96 500.872L1222.79 518.999C1219.07 520.603 1219.38 522.532 1215.82 523.268C1210.23 524.422 1207.59 519.916 1207.78 516.561C1207.88 514.927 1209.48 512.227 1210 511.724Z" fill="#827717" fill-opacity="0.08"/>
<path d="M1226.27 504.697C1222.8 505.02 1221.24 498.159 1214.96 500.871L1222.79 518.998C1226.51 517.394 1227.7 518.941 1230.68 516.852C1235.35 513.575 1233.88 508.566 1231.31 506.403C1230.05 505.35 1226.99 504.665 1226.27 504.697Z" fill="#827717" fill-opacity="0.08"/>
<ellipse cx="1202.4" cy="507.308" rx="3.80445" ry="5.62806" transform="rotate(-44.5452 1202.4 507.308)" fill="#827717" fill-opacity="0.08"/>
<ellipse rx="3.80445" ry="5.62806" transform="matrix(-0.999286 0.0377861 0.0377861 0.999286 1227.99 496.257)" fill="#827717" fill-opacity="0.08"/>
<ellipse cx="1206.74" cy="496.502" rx="4.19905" ry="6.21181" transform="rotate(-34.2388 1206.74 496.502)" fill="#827717" fill-opacity="0.08"/>
<ellipse rx="4.19905" ry="6.21181" transform="matrix(-0.976402 0.215961 0.215961 0.976402 1217.15 492.009)" fill="#827717" fill-opacity="0.08"/>
<path d="M13.2117 677.624C16.3873 676.188 14.3435 669.456 21.1417 668.705L23.3097 688.331C19.2876 688.775 19.0174 690.71 15.3941 690.368C9.71327 689.833 8.51326 684.752 9.67782 681.6C10.245 680.065 12.5694 677.953 13.2117 677.624Z" fill="#827717" fill-opacity="0.08"/>
<path d="M30.8289 675.678C27.4163 674.969 27.9416 667.954 21.1434 668.705L23.3114 688.331C27.3334 687.887 28.0194 689.715 31.4808 688.591C36.9078 686.829 36.9698 681.609 35.1454 678.787C34.2568 677.412 31.5276 675.859 30.8289 675.678Z" fill="#827717" fill-opacity="0.08"/>
<ellipse cx="7.24054" cy="671.175" rx="3.80445" ry="5.62806" transform="rotate(-27.4934 7.24054 671.175)" fill="#827717" fill-opacity="0.08"/>
<ellipse rx="3.80445" ry="5.62806" transform="matrix(-0.966438 -0.256902 -0.256902 0.966438 34.9496 668.114)" fill="#827717" fill-opacity="0.08"/>
<ellipse cx="14.5619" cy="662.117" rx="4.19905" ry="6.21181" transform="rotate(-17.187 14.5619 662.117)" fill="#827717" fill-opacity="0.08"/>
<ellipse rx="4.19905" ry="6.21181" transform="matrix(-0.996807 -0.0798488 -0.0798488 0.996807 25.8281 660.873)" fill="#827717" fill-opacity="0.08"/>
<path d="M1370.04 425.555C1373.21 424.119 1371.17 417.388 1377.97 416.637L1380.14 436.263C1376.11 436.707 1375.84 438.641 1372.22 438.3C1366.54 437.765 1365.34 432.683 1366.5 429.532C1367.07 427.996 1369.4 425.885 1370.04 425.555Z" fill="#827717" fill-opacity="0.08"/>
<path d="M1387.66 423.61C1384.24 422.901 1384.77 415.886 1377.97 416.637L1380.14 436.263C1384.16 435.818 1384.85 437.647 1388.31 436.523C1393.73 434.761 1393.8 429.54 1391.97 426.718C1391.08 425.344 1388.35 423.791 1387.66 423.61Z" fill="#827717" fill-opacity="0.08"/>
<ellipse cx="1364.07" cy="419.106" rx="3.80445" ry="5.62806" transform="rotate(-27.4934 1364.07 419.106)" fill="#827717" fill-opacity="0.08"/>
<ellipse rx="3.80445" ry="5.62806" transform="matrix(-0.966438 -0.256902 -0.256902 0.966438 1391.78 416.046)" fill="#827717" fill-opacity="0.08"/>
<ellipse cx="1371.39" cy="410.049" rx="4.19905" ry="6.21181" transform="rotate(-17.187 1371.39 410.049)" fill="#827717" fill-opacity="0.08"/>
<ellipse rx="4.19905" ry="6.21181" transform="matrix(-0.996807 -0.0798488 -0.0798488 0.996807 1382.65 408.805)" fill="#827717" fill-opacity="0.08"/>
<path d="M732.389 482.989C735.565 481.553 733.521 474.821 740.319 474.07L742.487 493.696C738.465 494.141 738.195 496.075 734.572 495.733C728.891 495.198 727.691 490.117 728.856 486.965C729.423 485.43 731.747 483.318 732.389 482.989Z" fill="#827717" fill-opacity="0.08"/>
<path d="M750.007 481.043C746.594 480.335 747.119 473.319 740.321 474.07L742.489 493.696C746.511 493.252 747.197 495.081 750.659 493.957C756.086 492.194 756.148 486.974 754.323 484.152C753.435 482.778 750.705 481.224 750.007 481.043Z" fill="#827717" fill-opacity="0.08"/>
<ellipse cx="726.418" cy="476.54" rx="3.80445" ry="5.62806" transform="rotate(-27.4934 726.418 476.54)" fill="#827717" fill-opacity="0.08"/>
<ellipse rx="3.80445" ry="5.62806" transform="matrix(-0.966438 -0.256902 -0.256902 0.966438 754.127 473.479)" fill="#827717" fill-opacity="0.08"/>
<ellipse cx="733.74" cy="467.483" rx="4.19905" ry="6.21181" transform="rotate(-17.187 733.74 467.483)" fill="#827717" fill-opacity="0.08"/>
<ellipse rx="4.19905" ry="6.21181" transform="matrix(-0.996807 -0.0798488 -0.0798488 0.996807 745.006 466.239)" fill="#827717" fill-opacity="0.08"/>
<path d="M1322.99 681.877C1326.41 682.562 1328.67 675.902 1334.63 679.257L1324.95 696.464C1321.42 694.479 1320.08 695.892 1317.33 693.502C1313.03 689.754 1315.02 684.926 1317.8 683.045C1319.16 682.129 1322.28 681.77 1322.99 681.877Z" fill="#BF360C" fill-opacity="0.08"/>
<path d="M1338.44 690.57C1336.08 688.005 1340.59 682.612 1334.63 679.257L1324.95 696.464C1328.48 698.449 1327.97 700.334 1331.43 701.44C1336.87 703.174 1339.96 698.97 1340.13 695.613C1340.21 693.979 1338.9 691.125 1338.44 690.57Z" fill="#BF360C" fill-opacity="0.08"/>
<ellipse cx="1321.9" cy="673.155" rx="3.80445" ry="5.62806" transform="rotate(8.18572 1321.9 673.155)" fill="#BF360C" fill-opacity="0.08"/>
<ellipse rx="3.80445" ry="5.62806" transform="matrix(-0.635197 -0.77235 -0.77235 0.635197 1346.2 686.83)" fill="#BF360C" fill-opacity="0.08"/>
<ellipse cx="1333.13" cy="670.068" rx="4.19905" ry="6.21181" transform="rotate(18.4921 1333.13 670.068)" fill="#BF360C" fill-opacity="0.08"/>
<ellipse rx="4.19905" ry="6.21181" transform="matrix(-0.763131 -0.646244 -0.646244 0.763131 1343.01 675.627)" fill="#BF360C" fill-opacity="0.08"/>
</svg>
